<?xml version="1.0" encoding="UTF-8" standalone="no"?>
<!-- Created with Inkscape (http://www.inkscape.org/) -->

<svg
   xmlns:dc="http://purl.org/dc/elements/1.1/"
   xmlns:cc="http://creativecommons.org/ns#"
   xmlns:rdf="http://www.w3.org/1999/02/22-rdf-syntax-ns#"
   xmlns:svg="http://www.w3.org/2000/svg"
   xmlns="http://www.w3.org/2000/svg"
   xmlns:sodipodi="http://sodipodi.sourceforge.net/DTD/sodipodi-0.dtd"
   xmlns:inkscape="http://www.inkscape.org/namespaces/inkscape"
   width="66.417793mm"
   height="48.997372mm"
   viewBox="0 0 66.417793 48.997372"
   version="1.1"
   id="svg1163"
   inkscape:version="0.92.4 (5da689c313, 2019-01-14)"
   sodipodi:docname="adding_weights.svg">
  <defs
     id="defs1157">
    <marker
       inkscape:stockid="Arrow1Lend"
       orient="auto"
       refY="0"
       refX="0"
       id="marker2699"
       style="overflow:visible"
       inkscape:isstock="true">
      <path
         inkscape:connector-curvature="0"
         id="path2697"
         d="M 0,0 5,-5 -12.5,0 5,5 Z"
         style="fill:#d40000;fill-opacity:1;fill-rule:evenodd;stroke:#aa0000;stroke-width:1.00000003pt;stroke-opacity:0.67058824"
         transform="matrix(-0.8,0,0,-0.8,-10,0)" />
    </marker>
    <marker
       inkscape:isstock="true"
       style="overflow:visible"
       id="marker2537"
       refX="0"
       refY="0"
       orient="auto"
       inkscape:stockid="Arrow1Lend">
      <path
         transform="matrix(-0.8,0,0,-0.8,-10,0)"
         style="fill:#d40000;fill-opacity:1;fill-rule:evenodd;stroke:#aa0000;stroke-width:1.00000003pt;stroke-opacity:0.67058824"
         d="M 0,0 5,-5 -12.5,0 5,5 Z"
         id="path2535"
         inkscape:connector-curvature="0" />
    </marker>
    <marker
       inkscape:stockid="Arrow1Lend"
       orient="auto"
       refY="0"
       refX="0"
       id="marker2423"
       style="overflow:visible"
       inkscape:isstock="true"
       inkscape:collect="always">
      <path
         inkscape:connector-curvature="0"
         id="path2421"
         d="M 0,0 5,-5 -12.5,0 5,5 Z"
         style="fill:#d40000;fill-opacity:1;fill-rule:evenodd;stroke:#aa0000;stroke-width:1.00000003pt;stroke-opacity:0.67058824"
         transform="matrix(-0.8,0,0,-0.8,-10,0)" />
    </marker>
    <marker
       inkscape:isstock="true"
       style="overflow:visible"
       id="marker2309"
       refX="0"
       refY="0"
       orient="auto"
       inkscape:stockid="Arrow1Lend">
      <path
         inkscape:connector-curvature="0"
         transform="matrix(-0.8,0,0,-0.8,-10,0)"
         style="fill:#d40000;fill-opacity:1;fill-rule:evenodd;stroke:#aa0000;stroke-width:1.00000003pt;stroke-opacity:0.67058824"
         d="M 0,0 5,-5 -12.5,0 5,5 Z"
         id="path2307" />
    </marker>
    <marker
       inkscape:stockid="Arrow1Lend"
       orient="auto"
       refY="0"
       refX="0"
       id="marker2811"
       style="overflow:visible"
       inkscape:isstock="true">
      <path
         id="path2809"
         d="M 0,0 5,-5 -12.5,0 5,5 Z"
         style="fill:#d40000;fill-opacity:1;fill-rule:evenodd;stroke:#aa0000;stroke-width:1.00000003pt;stroke-opacity:0.67058824"
         transform="matrix(-0.8,0,0,-0.8,-10,0)"
         inkscape:connector-curvature="0" />
    </marker>
    <marker
       inkscape:isstock="true"
       style="overflow:visible"
       id="marker2439"
       refX="0"
       refY="0"
       orient="auto"
       inkscape:stockid="Arrow1Lend"
       inkscape:collect="always">
      <path
         transform="matrix(-0.8,0,0,-0.8,-10,0)"
         style="fill:#d40000;fill-opacity:1;fill-rule:evenodd;stroke:#aa0000;stroke-width:1.00000003pt;stroke-opacity:0.67058824"
         d="M 0,0 5,-5 -12.5,0 5,5 Z"
         id="path2437"
         inkscape:connector-curvature="0" />
    </marker>
    <marker
       inkscape:isstock="true"
       style="overflow:visible"
       id="marker2019"
       refX="0"
       refY="0"
       orient="auto"
       inkscape:stockid="Arrow1Lend"
       inkscape:collect="always">
      <path
         transform="matrix(-0.8,0,0,-0.8,-10,0)"
         style="fill:#d40000;fill-opacity:1;fill-rule:evenodd;stroke:#aa0000;stroke-width:1.00000003pt;stroke-opacity:0.67058824"
         d="M 0,0 5,-5 -12.5,0 5,5 Z"
         id="path2017"
         inkscape:connector-curvature="0" />
    </marker>
    <marker
       inkscape:stockid="Arrow1Lend"
       orient="auto"
       refY="0"
       refX="0"
       id="marker1833"
       style="overflow:visible"
       inkscape:isstock="true"
       inkscape:collect="always">
      <path
         id="path1573"
         d="M 0,0 5,-5 -12.5,0 5,5 Z"
         style="fill:#d40000;fill-opacity:1;fill-rule:evenodd;stroke:#aa0000;stroke-width:1.00000003pt;stroke-opacity:0.67058824"
         transform="matrix(-0.8,0,0,-0.8,-10,0)"
         inkscape:connector-curvature="0" />
    </marker>
  </defs>
  <sodipodi:namedview
     id="base"
     pagecolor="#ffffff"
     bordercolor="#666666"
     borderopacity="1.0"
     inkscape:pageopacity="0.0"
     inkscape:pageshadow="2"
     inkscape:zoom="1.979899"
     inkscape:cx="180.66725"
     inkscape:cy="21.68736"
     inkscape:document-units="mm"
     inkscape:current-layer="layer1"
     showgrid="false"
     fit-margin-top="0"
     fit-margin-left="0"
     fit-margin-right="0"
     fit-margin-bottom="0"
     inkscape:window-width="1920"
     inkscape:window-height="1016"
     inkscape:window-x="0"
     inkscape:window-y="27"
     inkscape:window-maximized="1" />
  <metadata
     id="metadata1160">
    <rdf:RDF>
      <cc:Work
         rdf:about="">
        <dc:format>image/svg+xml</dc:format>
        <dc:type
           rdf:resource="http://purl.org/dc/dcmitype/StillImage" />
        <dc:title></dc:title>
      </cc:Work>
    </rdf:RDF>
  </metadata>
  <g
     inkscape:label="Layer 1"
     inkscape:groupmode="layer"
     id="layer1"
     transform="translate(36.145588,4.7809355)">
    <path
       sodipodi:nodetypes="cccc"
       inkscape:connector-curvature="0"
       id="path1096"
       d="m -23.60128,38.438206 v -7.9375 h 10.16 v 7.9375"
       style="fill:none;fill-rule:evenodd;stroke:#000000;stroke-width:0.26458332px;stroke-linecap:butt;stroke-linejoin:miter;stroke-opacity:1" />
    <path
       style="fill:#d40000;fill-rule:evenodd;stroke:#aa0000;stroke-width:0.26499999;stroke-linecap:butt;stroke-linejoin:miter;stroke-miterlimit:4;stroke-dasharray:none;stroke-opacity:0.67058824;marker-end:url(#marker2699)"
       d="M -7.1971063,15.154869 0.04302957,0.71807203"
       id="path2695"
       inkscape:connector-curvature="0"
       sodipodi:nodetypes="cc" />
    <path
       sodipodi:nodetypes="cc"
       inkscape:connector-curvature="0"
       id="path2305"
       d="M 5.5028876,38.438206 10.719914,26.153979"
       style="fill:#d40000;fill-rule:evenodd;stroke:#aa0000;stroke-width:0.26499999;stroke-linecap:butt;stroke-linejoin:miter;stroke-miterlimit:4;stroke-dasharray:none;stroke-opacity:0.67058824;marker-end:url(#marker2309)" />
    <path
       sodipodi:nodetypes="cc"
       style="fill:#d40000;fill-rule:evenodd;stroke:#aa0000;stroke-width:0.26499999;stroke-linecap:butt;stroke-linejoin:miter;stroke-miterlimit:4;stroke-dasharray:none;stroke-opacity:0.67058824;marker-end:url(#marker2423)"
       d="M 15.534088,38.438206 11.382168,26.067585"
       id="path2419"
       inkscape:connector-curvature="0" />
    <path
       inkscape:connector-curvature="0"
       id="path2533"
       d="M 11.033482,25.209037 1.1013629,0.71807203"
       style="fill:#d40000;fill-rule:evenodd;stroke:#aa0000;stroke-width:0.26499999;stroke-linecap:butt;stroke-linejoin:miter;stroke-miterlimit:4;stroke-dasharray:none;stroke-opacity:0.67058824;marker-end:url(#marker2537)"
       sodipodi:nodetypes="cc" />
    <path
       sodipodi:nodetypes="cccc"
       style="fill:none;fill-rule:evenodd;stroke:#000000;stroke-width:0.26458332px;stroke-linecap:butt;stroke-linejoin:miter;stroke-opacity:1"
       d="m -17.99211,30.500706 v -15.34583 h 14.9224995 v 23.28333"
       id="path1098"
       inkscape:connector-curvature="0" />
    <path
       sodipodi:nodetypes="cccc"
       inkscape:connector-curvature="0"
       id="path1100"
       d="M -7.0912705,15.260706 V 0.02070613 H 11.100839 V 25.103206"
       style="fill:none;fill-rule:evenodd;stroke:#000000;stroke-width:0.26458332px;stroke-linecap:butt;stroke-linejoin:miter;stroke-opacity:1" />
    <circle
       r="0.86862594"
       cy="15.130631"
       cx="-7.131916"
       id="circle1102"
       style="opacity:1;fill:#868686;fill-opacity:1;stroke:none;stroke-width:1.05833328;stroke-linecap:round;stroke-miterlimit:4;stroke-dasharray:none;stroke-dashoffset:0;stroke-opacity:0.91489377" />
    <circle
       style="opacity:1;fill:#868686;fill-opacity:1;stroke:none;stroke-width:1.05833328;stroke-linecap:round;stroke-miterlimit:4;stroke-dasharray:none;stroke-dashoffset:0;stroke-opacity:0.91489377"
       id="circle1104"
       cx="-17.998753"
       cy="30.570969"
       r="0.86862594" />
    <circle
       r="0.86862594"
       cy="38.508469"
       cx="-3.0875893"
       id="circle1106"
       style="opacity:1;fill:#868686;fill-opacity:1;stroke:none;stroke-width:1.05833328;stroke-linecap:round;stroke-miterlimit:4;stroke-dasharray:none;stroke-dashoffset:0;stroke-opacity:0.91489377" />
    <circle
       r="0.86862594"
       cy="-0.1206811"
       cx="0.71105587"
       id="circle1108"
       style="opacity:1;fill:#868686;fill-opacity:1;stroke:none;stroke-width:1.05833328;stroke-linecap:round;stroke-miterlimit:4;stroke-dasharray:none;stroke-dashoffset:0;stroke-opacity:0.91489377" />
    <circle
       r="0.86862594"
       cy="38.508469"
       cx="-13.481953"
       id="circle1110"
       style="opacity:1;fill:#868686;fill-opacity:1;stroke:none;stroke-width:1.05833328;stroke-linecap:round;stroke-miterlimit:4;stroke-dasharray:none;stroke-dashoffset:0;stroke-opacity:0.91489377" />
    <circle
       style="opacity:1;fill:#868686;fill-opacity:1;stroke:none;stroke-width:1.05833328;stroke-linecap:round;stroke-miterlimit:4;stroke-dasharray:none;stroke-dashoffset:0;stroke-opacity:0.91489377"
       id="circle1112"
       cx="-23.630617"
       cy="38.508469"
       r="0.86862594" />
    <path
       style="fill:none;fill-rule:evenodd;stroke:#000000;stroke-width:0.26458332px;stroke-linecap:butt;stroke-linejoin:miter;stroke-opacity:1"
       d="M 5.5028791,38.438206 V 25.209036 H 15.662879 v 13.22917"
       id="path1114"
       inkscape:connector-curvature="0"
       sodipodi:nodetypes="cccc" />
    <circle
       r="0.86862594"
       cy="25.279282"
       cx="11.105434"
       id="circle1116"
       style="opacity:1;fill:#868686;fill-opacity:1;stroke:none;stroke-width:1.05833328;stroke-linecap:round;stroke-miterlimit:4;stroke-dasharray:none;stroke-dashoffset:0;stroke-opacity:0.91489377" />
    <circle
       style="opacity:1;fill:#868686;fill-opacity:1;stroke:none;stroke-width:1.05833328;stroke-linecap:round;stroke-miterlimit:4;stroke-dasharray:none;stroke-dashoffset:0;stroke-opacity:0.91489377"
       id="circle1118"
       cx="15.622204"
       cy="38.508469"
       r="0.86862594" />
    <circle
       r="0.86862594"
       cy="38.508469"
       cx="5.4735527"
       id="circle1120"
       style="opacity:1;fill:#868686;fill-opacity:1;stroke:none;stroke-width:1.05833328;stroke-linecap:round;stroke-miterlimit:4;stroke-dasharray:none;stroke-dashoffset:0;stroke-opacity:0.91489377" />
    <g
       id="g1471"
       transform="translate(-31.12107,-24.369745)">
      <path
         style="font-style:normal;font-variant:normal;font-weight:normal;font-stretch:normal;letter-spacing:normal;word-spacing:normal;text-anchor:start;fill:#000000;fill-opacity:1;fill-rule:evenodd;stroke:#000000;stroke-width:0;stroke-linecap:butt;stroke-linejoin:miter;stroke-miterlimit:10.43299961;stroke-dasharray:none;stroke-dashoffset:0;stroke-opacity:1"
         inkscape:connector-curvature="0"
         d="m 6.7665918,65.872902 v -0.01101 l 0.0055,-0.01651 v -0.01101 l 0.0055,-0.01101 0.0055,-0.01101 v -0.01651 l 0.0055,-0.02752 0.011007,-0.02752 0.0055,-0.02752 0.0055,-0.02752 0.0055,-0.02752 0.0055,-0.01101 v -0.01101 l 0.0055,-0.01101 v -0.01651 l 0.0055,-0.01101 v -0.01101 l 0.0055,-0.01101 v -0.0055 l 0.0055,-0.01101 v -0.01101 -0.0055 -0.0055 l 0.0055,-0.0055 v -0.0055 -0.0055 -0.0055 c 0,-0.09906 -0.077049,-0.148596 -0.1596027,-0.148596 -0.066043,0 -0.1651062,0.04403 -0.203631,0.154099 -0.016511,0.03853 -0.2751771,1.084198 -0.3137019,1.22729 -0.038525,0.159603 -0.049532,0.258666 -0.049532,0.35773 0,0.06054 0,0.07155 0.0055,0.09906 -0.1265815,0.291688 -0.2916877,0.462297 -0.5063258,0.462297 -0.4347798,0 -0.4347798,-0.407262 -0.4347798,-0.500822 0,-0.176113 0.027518,-0.385248 0.2861841,-1.05668 0.055035,-0.165106 0.088057,-0.242156 0.088057,-0.352226 0,-0.24766 -0.1761133,-0.451291 -0.4457869,-0.451291 -0.5228364,0 -0.7264675,0.798014 -0.7264675,0.842042 0,0.05504 0.055035,0.05504 0.066043,0.05504 0.055035,0 0.060539,-0.01101 0.088057,-0.09356 0.1485956,-0.511829 0.3632338,-0.682439 0.5558577,-0.682439 0.049532,0 0.1375885,0.0055 0.1375885,0.181617 0,0.137588 -0.060539,0.291688 -0.099064,0.385248 -0.2421558,0.643914 -0.3081983,0.891574 -0.3081983,1.100708 0,0.500822 0.3687373,0.687943 0.7759993,0.687943 0.09356,0 0.3522267,0 0.5723684,-0.379745 0.143092,0.352227 0.5228364,0.379745 0.6879427,0.379745 0.4127656,0 0.6494179,-0.34122 0.7980135,-0.671432 0.1816169,-0.423773 0.3577302,-1.155744 0.3577302,-1.419914 0,-0.302695 -0.1485956,-0.385248 -0.2421558,-0.385248 -0.1375886,0 -0.2751771,0.143092 -0.2751771,0.26417 0,0.07155 0.038525,0.104567 0.088057,0.148596 0.060539,0.06054 0.1926239,0.203631 0.1926239,0.462297 0,0.187121 -0.1596027,0.726468 -0.3026948,1.001645 -0.1375885,0.291688 -0.3302125,0.484311 -0.599886,0.484311 -0.2586665,0 -0.4072621,-0.165106 -0.4072621,-0.478808 0,-0.154099 0.038525,-0.319205 0.060539,-0.396255 z"
         id="path1467" />
      <path
         style="font-style:normal;font-variant:normal;font-weight:normal;font-stretch:normal;letter-spacing:normal;word-spacing:normal;text-anchor:start;fill:#000000;fill-opacity:1;fill-rule:evenodd;stroke:#000000;stroke-width:0;stroke-linecap:butt;stroke-linejoin:miter;stroke-miterlimit:10.43299961;stroke-dasharray:none;stroke-dashoffset:0;stroke-opacity:1"
         inkscape:connector-curvature="0"
         d="m 9.4468166,66.115058 v -0.0055 -0.0055 -0.0055 -0.0055 0 -0.0055 -0.0055 -0.0055 0 -0.0055 l -0.0055,-0.0055 v 0 -0.0055 0 -0.0055 0 -0.0055 0 -0.0055 -0.0055 l -0.0055,-0.0055 v 0 l -0.0055,-0.0055 v -0.0055 0 l -0.0055,-0.0055 h -0.0055 v 0 l -0.0055,-0.0055 h -0.0055 -0.0055 -0.0055 v 0 h -0.0055 v 0 l -0.0055,-0.0055 v 0 h -0.0055 -0.0055 v 0 h -0.0055 -0.0055 v 0 h -0.0055 -0.0055 -0.0055 -0.0055 v 0 h -0.0055 -0.0055 c -0.2476594,0.242156 -0.599886,0.247659 -0.7539852,0.247659 v 0.137589 c 0.088057,0 0.3467231,0 0.5558577,-0.110071 v 1.953757 c 0,0.126582 0,0.176114 -0.3852479,0.176114 H 8.6047747 v 0.137588 c 0.066043,-0.0055 0.5393471,-0.01651 0.6824392,-0.01651 0.1210779,0 0.6053895,0.01101 0.6879427,0.01651 V 68.410035 H 9.8320645 c -0.3852479,0 -0.3852479,-0.04953 -0.3852479,-0.176114 z"
         id="path1469" />
    </g>
    <g
       id="g1477"
       transform="translate(-34.06104,-24.369708)">
      <path
         style="font-style:normal;font-variant:normal;font-weight:normal;font-stretch:normal;letter-spacing:normal;word-spacing:normal;text-anchor:start;fill:#000000;fill-opacity:1;fill-rule:evenodd;stroke:#000000;stroke-width:0;stroke-linecap:butt;stroke-linejoin:miter;stroke-miterlimit:10.43299961;stroke-dasharray:none;stroke-dashoffset:0;stroke-opacity:1"
         inkscape:connector-curvature="0"
         d="m 19.854014,65.872902 v -0.01101 l 0.0055,-0.01651 v -0.01101 l 0.0055,-0.01101 v -0.01101 l 0.0055,-0.01651 0.0055,-0.02752 0.0055,-0.02752 0.01101,-0.02752 0.0055,-0.02752 0.0055,-0.02752 0.0055,-0.01101 v -0.01101 l 0.0055,-0.01101 v -0.01651 l 0.0055,-0.01101 v -0.01101 l 0.0055,-0.01101 v -0.0055 l 0.0055,-0.01101 v -0.01101 -0.0055 -0.0055 l 0.0055,-0.0055 v -0.0055 -0.0055 -0.0055 c 0,-0.09906 -0.07705,-0.148596 -0.159603,-0.148596 -0.06604,0 -0.165106,0.04403 -0.203631,0.154099 -0.01651,0.03853 -0.275177,1.084198 -0.313702,1.22729 -0.03852,0.159603 -0.04953,0.258666 -0.04953,0.35773 0,0.06054 0,0.07155 0.0055,0.09906 -0.126582,0.291688 -0.291688,0.462297 -0.506326,0.462297 -0.43478,0 -0.43478,-0.407262 -0.43478,-0.500822 0,-0.176113 0.02752,-0.385248 0.280681,-1.05668 0.06054,-0.165106 0.09356,-0.242156 0.09356,-0.352226 0,-0.24766 -0.176113,-0.451291 -0.445787,-0.451291 -0.522836,0 -0.726467,0.798014 -0.726467,0.842042 0,0.05504 0.05504,0.05504 0.06604,0.05504 0.05504,0 0.06054,-0.01101 0.08806,-0.09356 0.148596,-0.511829 0.363234,-0.682439 0.555858,-0.682439 0.04953,0 0.137588,0.0055 0.137588,0.181617 0,0.137588 -0.06054,0.291688 -0.09906,0.385248 -0.242155,0.643914 -0.308198,0.891574 -0.308198,1.100708 0,0.500822 0.368737,0.687943 0.775999,0.687943 0.09356,0 0.352227,0 0.572369,-0.379745 0.143092,0.352227 0.522836,0.379745 0.687942,0.379745 0.412766,0 0.649418,-0.34122 0.79251,-0.671432 0.187121,-0.423773 0.363234,-1.155744 0.363234,-1.419914 0,-0.302695 -0.148595,-0.385248 -0.242156,-0.385248 -0.137588,0 -0.275177,0.143092 -0.275177,0.26417 0,0.07155 0.03302,0.104567 0.08255,0.148596 0.06054,0.06054 0.198128,0.203631 0.198128,0.462297 0,0.187121 -0.159603,0.726468 -0.302695,1.001645 -0.137588,0.291688 -0.330212,0.484311 -0.599886,0.484311 -0.258666,0 -0.407262,-0.165106 -0.407262,-0.478808 0,-0.154099 0.03852,-0.319205 0.06054,-0.396255 z"
         id="path1473" />
      <path
         style="font-style:normal;font-variant:normal;font-weight:normal;font-stretch:normal;letter-spacing:normal;word-spacing:normal;text-anchor:start;fill:#000000;fill-opacity:1;fill-rule:evenodd;stroke:#000000;stroke-width:0;stroke-linecap:butt;stroke-linejoin:miter;stroke-miterlimit:10.43299961;stroke-dasharray:none;stroke-dashoffset:0;stroke-opacity:1"
         inkscape:connector-curvature="0"
         d="m 23.183656,67.848673 h -0.126581 c -0.01101,0.08806 -0.05504,0.313702 -0.104567,0.352227 -0.02752,0.02201 -0.324709,0.02201 -0.379745,0.02201 H 21.86831 c 0.401758,-0.35773 0.539347,-0.462297 0.764992,-0.643914 0.286184,-0.225645 0.550354,-0.462298 0.550354,-0.825531 0,-0.462298 -0.407262,-0.748482 -0.897077,-0.748482 -0.478808,0 -0.803517,0.335716 -0.803517,0.687943 0,0.192624 0.165106,0.214638 0.203631,0.214638 0.09356,0 0.203631,-0.06604 0.203631,-0.203631 0,-0.07155 -0.02201,-0.203631 -0.225645,-0.203631 0.121078,-0.275177 0.379744,-0.357731 0.561361,-0.357731 0.385248,0 0.588879,0.297192 0.588879,0.610894 0,0.330212 -0.242156,0.594382 -0.363234,0.731971 l -0.930098,0.913587 c -0.03852,0.03302 -0.03852,0.03852 -0.03852,0.148596 h 1.58502 z"
         id="path1475" />
    </g>
    <g
       transform="translate(-46.8846,-12.499294)"
       id="g1535">
      <g
         transform="translate(6.8791664,-26.458334)"
         id="g1483">
        <path
           id="path1479"
           d="m 6.7665918,65.872902 v -0.01101 l 0.0055,-0.01651 v -0.01101 l 0.0055,-0.01101 0.0055,-0.01101 v -0.01651 l 0.0055,-0.02752 0.011007,-0.02752 0.0055,-0.02752 0.0055,-0.02752 0.0055,-0.02752 0.0055,-0.01101 v -0.01101 l 0.0055,-0.01101 v -0.01651 l 0.0055,-0.01101 v -0.01101 l 0.0055,-0.01101 v -0.0055 l 0.0055,-0.01101 v -0.01101 -0.0055 -0.0055 l 0.0055,-0.0055 v -0.0055 -0.0055 -0.0055 c 0,-0.09906 -0.077049,-0.148596 -0.1596027,-0.148596 -0.066043,0 -0.1651062,0.04403 -0.203631,0.154099 -0.016511,0.03853 -0.2751771,1.084198 -0.3137019,1.22729 -0.038525,0.159603 -0.049532,0.258666 -0.049532,0.35773 0,0.06054 0,0.07155 0.0055,0.09906 -0.1265815,0.291688 -0.2916877,0.462297 -0.5063258,0.462297 -0.4347798,0 -0.4347798,-0.407262 -0.4347798,-0.500822 0,-0.176113 0.027518,-0.385248 0.2861841,-1.05668 0.055035,-0.165106 0.088057,-0.242156 0.088057,-0.352226 0,-0.24766 -0.1761133,-0.451291 -0.4457869,-0.451291 -0.5228364,0 -0.7264675,0.798014 -0.7264675,0.842042 0,0.05504 0.055035,0.05504 0.066043,0.05504 0.055035,0 0.060539,-0.01101 0.088057,-0.09356 0.1485956,-0.511829 0.3632338,-0.682439 0.5558577,-0.682439 0.049532,0 0.1375885,0.0055 0.1375885,0.181617 0,0.137588 -0.060539,0.291688 -0.099064,0.385248 -0.2421558,0.643914 -0.3081983,0.891574 -0.3081983,1.100708 0,0.500822 0.3687373,0.687943 0.7759993,0.687943 0.09356,0 0.3522267,0 0.5723684,-0.379745 0.143092,0.352227 0.5228364,0.379745 0.6879427,0.379745 0.4127656,0 0.6494179,-0.34122 0.7980135,-0.671432 0.1816169,-0.423773 0.3577302,-1.155744 0.3577302,-1.419914 0,-0.302695 -0.1485956,-0.385248 -0.2421558,-0.385248 -0.1375886,0 -0.2751771,0.143092 -0.2751771,0.26417 0,0.07155 0.038525,0.104567 0.088057,0.148596 0.060539,0.06054 0.1926239,0.203631 0.1926239,0.462297 0,0.187121 -0.1596027,0.726468 -0.3026948,1.001645 -0.1375885,0.291688 -0.3302125,0.484311 -0.599886,0.484311 -0.2586665,0 -0.4072621,-0.165106 -0.4072621,-0.478808 0,-0.154099 0.038525,-0.319205 0.060539,-0.396255 z"
           inkscape:connector-curvature="0"
           style="font-style:normal;font-variant:normal;font-weight:normal;font-stretch:normal;letter-spacing:normal;word-spacing:normal;text-anchor:start;fill:#000000;fill-opacity:1;fill-rule:evenodd;stroke:#000000;stroke-width:0;stroke-linecap:butt;stroke-linejoin:miter;stroke-miterlimit:10.43299961;stroke-dasharray:none;stroke-dashoffset:0;stroke-opacity:1" />
        <path
           id="path1481"
           d="m 9.4468166,66.115058 v -0.0055 -0.0055 -0.0055 -0.0055 0 -0.0055 -0.0055 -0.0055 0 -0.0055 l -0.0055,-0.0055 v 0 -0.0055 0 -0.0055 0 -0.0055 0 -0.0055 -0.0055 l -0.0055,-0.0055 v 0 l -0.0055,-0.0055 v -0.0055 0 l -0.0055,-0.0055 h -0.0055 v 0 l -0.0055,-0.0055 h -0.0055 -0.0055 -0.0055 v 0 h -0.0055 v 0 l -0.0055,-0.0055 v 0 h -0.0055 -0.0055 v 0 h -0.0055 -0.0055 v 0 h -0.0055 -0.0055 -0.0055 -0.0055 v 0 h -0.0055 -0.0055 c -0.2476594,0.242156 -0.599886,0.247659 -0.7539852,0.247659 v 0.137589 c 0.088057,0 0.3467231,0 0.5558577,-0.110071 v 1.953757 c 0,0.126582 0,0.176114 -0.3852479,0.176114 H 8.6047747 v 0.137588 c 0.066043,-0.0055 0.5393471,-0.01651 0.6824392,-0.01651 0.1210779,0 0.6053895,0.01101 0.6879427,0.01651 V 68.410035 H 9.8320645 c -0.3852479,0 -0.3852479,-0.04953 -0.3852479,-0.176114 z"
           inkscape:connector-curvature="0"
           style="font-style:normal;font-variant:normal;font-weight:normal;font-stretch:normal;letter-spacing:normal;word-spacing:normal;text-anchor:start;fill:#000000;fill-opacity:1;fill-rule:evenodd;stroke:#000000;stroke-width:0;stroke-linecap:butt;stroke-linejoin:miter;stroke-miterlimit:10.43299961;stroke-dasharray:none;stroke-dashoffset:0;stroke-opacity:1" />
      </g>
      <path
         style="font-style:normal;font-variant:normal;font-weight:normal;font-stretch:normal;letter-spacing:normal;word-spacing:normal;text-anchor:start;fill:#000000;fill-opacity:1;fill-rule:evenodd;stroke:#000000;stroke-width:0;stroke-linecap:butt;stroke-linejoin:miter;stroke-miterlimit:10.43299961;stroke-dasharray:none;stroke-dashoffset:0;stroke-opacity:1"
         inkscape:connector-curvature="0"
         d="m 19.901633,40.008949 h 1.529984 c 0.07705,0 0.181617,0 0.181617,-0.11007 0,-0.110071 -0.104567,-0.110071 -0.181617,-0.110071 h -1.529984 v -1.529985 c 0,-0.07705 0,-0.181617 -0.110071,-0.181617 -0.110071,0 -0.110071,0.104568 -0.110071,0.181617 v 1.529985 h -1.540992 c -0.07155,0 -0.176113,0 -0.176113,0.110071 0,0.11007 0.104567,0.11007 0.176113,0.11007 h 1.540992 v 1.529985 c 0,0.07705 0,0.181617 0.110071,0.181617 0.110071,0 0.110071,-0.104567 0.110071,-0.181617 z"
         id="path1485" />
      <g
         transform="translate(5.2916663,-26.458334)"
         id="g1491">
        <path
           id="path1487"
           d="m 19.854014,65.872902 v -0.01101 l 0.0055,-0.01651 v -0.01101 l 0.0055,-0.01101 v -0.01101 l 0.0055,-0.01651 0.0055,-0.02752 0.0055,-0.02752 0.01101,-0.02752 0.0055,-0.02752 0.0055,-0.02752 0.0055,-0.01101 v -0.01101 l 0.0055,-0.01101 v -0.01651 l 0.0055,-0.01101 v -0.01101 l 0.0055,-0.01101 v -0.0055 l 0.0055,-0.01101 v -0.01101 -0.0055 -0.0055 l 0.0055,-0.0055 v -0.0055 -0.0055 -0.0055 c 0,-0.09906 -0.07705,-0.148596 -0.159603,-0.148596 -0.06604,0 -0.165106,0.04403 -0.203631,0.154099 -0.01651,0.03853 -0.275177,1.084198 -0.313702,1.22729 -0.03852,0.159603 -0.04953,0.258666 -0.04953,0.35773 0,0.06054 0,0.07155 0.0055,0.09906 -0.126582,0.291688 -0.291688,0.462297 -0.506326,0.462297 -0.43478,0 -0.43478,-0.407262 -0.43478,-0.500822 0,-0.176113 0.02752,-0.385248 0.280681,-1.05668 0.06054,-0.165106 0.09356,-0.242156 0.09356,-0.352226 0,-0.24766 -0.176113,-0.451291 -0.445787,-0.451291 -0.522836,0 -0.726467,0.798014 -0.726467,0.842042 0,0.05504 0.05504,0.05504 0.06604,0.05504 0.05504,0 0.06054,-0.01101 0.08806,-0.09356 0.148596,-0.511829 0.363234,-0.682439 0.555858,-0.682439 0.04953,0 0.137588,0.0055 0.137588,0.181617 0,0.137588 -0.06054,0.291688 -0.09906,0.385248 -0.242155,0.643914 -0.308198,0.891574 -0.308198,1.100708 0,0.500822 0.368737,0.687943 0.775999,0.687943 0.09356,0 0.352227,0 0.572369,-0.379745 0.143092,0.352227 0.522836,0.379745 0.687942,0.379745 0.412766,0 0.649418,-0.34122 0.79251,-0.671432 0.187121,-0.423773 0.363234,-1.155744 0.363234,-1.419914 0,-0.302695 -0.148595,-0.385248 -0.242156,-0.385248 -0.137588,0 -0.275177,0.143092 -0.275177,0.26417 0,0.07155 0.03302,0.104567 0.08255,0.148596 0.06054,0.06054 0.198128,0.203631 0.198128,0.462297 0,0.187121 -0.159603,0.726468 -0.302695,1.001645 -0.137588,0.291688 -0.330212,0.484311 -0.599886,0.484311 -0.258666,0 -0.407262,-0.165106 -0.407262,-0.478808 0,-0.154099 0.03852,-0.319205 0.06054,-0.396255 z"
           inkscape:connector-curvature="0"
           style="font-style:normal;font-variant:normal;font-weight:normal;font-stretch:normal;letter-spacing:normal;word-spacing:normal;text-anchor:start;fill:#000000;fill-opacity:1;fill-rule:evenodd;stroke:#000000;stroke-width:0;stroke-linecap:butt;stroke-linejoin:miter;stroke-miterlimit:10.43299961;stroke-dasharray:none;stroke-dashoffset:0;stroke-opacity:1" />
        <path
           id="path1489"
           d="m 23.183656,67.848673 h -0.126581 c -0.01101,0.08806 -0.05504,0.313702 -0.104567,0.352227 -0.02752,0.02201 -0.324709,0.02201 -0.379745,0.02201 H 21.86831 c 0.401758,-0.35773 0.539347,-0.462297 0.764992,-0.643914 0.286184,-0.225645 0.550354,-0.462298 0.550354,-0.825531 0,-0.462298 -0.407262,-0.748482 -0.897077,-0.748482 -0.478808,0 -0.803517,0.335716 -0.803517,0.687943 0,0.192624 0.165106,0.214638 0.203631,0.214638 0.09356,0 0.203631,-0.06604 0.203631,-0.203631 0,-0.07155 -0.02201,-0.203631 -0.225645,-0.203631 0.121078,-0.275177 0.379744,-0.357731 0.561361,-0.357731 0.385248,0 0.588879,0.297192 0.588879,0.610894 0,0.330212 -0.242156,0.594382 -0.363234,0.731971 l -0.930098,0.913587 c -0.03852,0.03302 -0.03852,0.03852 -0.03852,0.148596 h 1.58502 z"
           inkscape:connector-curvature="0"
           style="font-style:normal;font-variant:normal;font-weight:normal;font-stretch:normal;letter-spacing:normal;word-spacing:normal;text-anchor:start;fill:#000000;fill-opacity:1;fill-rule:evenodd;stroke:#000000;stroke-width:0;stroke-linecap:butt;stroke-linejoin:miter;stroke-miterlimit:10.43299961;stroke-dasharray:none;stroke-dashoffset:0;stroke-opacity:1" />
      </g>
    </g>
    <g
       id="g1559"
       transform="translate(-45.2971,-12.499294)">
      <g
         transform="translate(4.7625002,-42.333335)"
         id="g1497">
        <path
           id="path1493"
           d="m 6.7665918,65.872902 v -0.01101 l 0.0055,-0.01651 v -0.01101 l 0.0055,-0.01101 0.0055,-0.01101 v -0.01651 l 0.0055,-0.02752 0.011007,-0.02752 0.0055,-0.02752 0.0055,-0.02752 0.0055,-0.02752 0.0055,-0.01101 v -0.01101 l 0.0055,-0.01101 v -0.01651 l 0.0055,-0.01101 v -0.01101 l 0.0055,-0.01101 v -0.0055 l 0.0055,-0.01101 v -0.01101 -0.0055 -0.0055 l 0.0055,-0.0055 v -0.0055 -0.0055 -0.0055 c 0,-0.09906 -0.077049,-0.148596 -0.1596027,-0.148596 -0.066043,0 -0.1651062,0.04403 -0.203631,0.154099 -0.016511,0.03853 -0.2751771,1.084198 -0.3137019,1.22729 -0.038525,0.159603 -0.049532,0.258666 -0.049532,0.35773 0,0.06054 0,0.07155 0.0055,0.09906 -0.1265815,0.291688 -0.2916877,0.462297 -0.5063258,0.462297 -0.4347798,0 -0.4347798,-0.407262 -0.4347798,-0.500822 0,-0.176113 0.027518,-0.385248 0.2861841,-1.05668 0.055035,-0.165106 0.088057,-0.242156 0.088057,-0.352226 0,-0.24766 -0.1761133,-0.451291 -0.4457869,-0.451291 -0.5228364,0 -0.7264675,0.798014 -0.7264675,0.842042 0,0.05504 0.055035,0.05504 0.066043,0.05504 0.055035,0 0.060539,-0.01101 0.088057,-0.09356 0.1485956,-0.511829 0.3632338,-0.682439 0.5558577,-0.682439 0.049532,0 0.1375885,0.0055 0.1375885,0.181617 0,0.137588 -0.060539,0.291688 -0.099064,0.385248 -0.2421558,0.643914 -0.3081983,0.891574 -0.3081983,1.100708 0,0.500822 0.3687373,0.687943 0.7759993,0.687943 0.09356,0 0.3522267,0 0.5723684,-0.379745 0.143092,0.352227 0.5228364,0.379745 0.6879427,0.379745 0.4127656,0 0.6494179,-0.34122 0.7980135,-0.671432 0.1816169,-0.423773 0.3577302,-1.155744 0.3577302,-1.419914 0,-0.302695 -0.1485956,-0.385248 -0.2421558,-0.385248 -0.1375886,0 -0.2751771,0.143092 -0.2751771,0.26417 0,0.07155 0.038525,0.104567 0.088057,0.148596 0.060539,0.06054 0.1926239,0.203631 0.1926239,0.462297 0,0.187121 -0.1596027,0.726468 -0.3026948,1.001645 -0.1375885,0.291688 -0.3302125,0.484311 -0.599886,0.484311 -0.2586665,0 -0.4072621,-0.165106 -0.4072621,-0.478808 0,-0.154099 0.038525,-0.319205 0.060539,-0.396255 z"
           inkscape:connector-curvature="0"
           style="font-style:normal;font-variant:normal;font-weight:normal;font-stretch:normal;letter-spacing:normal;word-spacing:normal;text-anchor:start;fill:#000000;fill-opacity:1;fill-rule:evenodd;stroke:#000000;stroke-width:0;stroke-linecap:butt;stroke-linejoin:miter;stroke-miterlimit:10.43299961;stroke-dasharray:none;stroke-dashoffset:0;stroke-opacity:1" />
        <path
           id="path1495"
           d="m 9.4468166,66.115058 v -0.0055 -0.0055 -0.0055 -0.0055 0 -0.0055 -0.0055 -0.0055 0 -0.0055 l -0.0055,-0.0055 v 0 -0.0055 0 -0.0055 0 -0.0055 0 -0.0055 -0.0055 l -0.0055,-0.0055 v 0 l -0.0055,-0.0055 v -0.0055 0 l -0.0055,-0.0055 h -0.0055 v 0 l -0.0055,-0.0055 h -0.0055 -0.0055 -0.0055 v 0 h -0.0055 v 0 l -0.0055,-0.0055 v 0 h -0.0055 -0.0055 v 0 h -0.0055 -0.0055 v 0 h -0.0055 -0.0055 -0.0055 -0.0055 v 0 h -0.0055 -0.0055 c -0.2476594,0.242156 -0.599886,0.247659 -0.7539852,0.247659 v 0.137589 c 0.088057,0 0.3467231,0 0.5558577,-0.110071 v 1.953757 c 0,0.126582 0,0.176114 -0.3852479,0.176114 H 8.6047747 v 0.137588 c 0.066043,-0.0055 0.5393471,-0.01651 0.6824392,-0.01651 0.1210779,0 0.6053895,0.01101 0.6879427,0.01651 V 68.410035 H 9.8320645 c -0.3852479,0 -0.3852479,-0.04953 -0.3852479,-0.176114 z"
           inkscape:connector-curvature="0"
           style="font-style:normal;font-variant:normal;font-weight:normal;font-stretch:normal;letter-spacing:normal;word-spacing:normal;text-anchor:start;fill:#000000;fill-opacity:1;fill-rule:evenodd;stroke:#000000;stroke-width:0;stroke-linecap:butt;stroke-linejoin:miter;stroke-miterlimit:10.43299961;stroke-dasharray:none;stroke-dashoffset:0;stroke-opacity:1" />
      </g>
      <path
         style="font-style:normal;font-variant:normal;font-weight:normal;font-stretch:normal;letter-spacing:normal;word-spacing:normal;text-anchor:start;fill:#000000;fill-opacity:1;fill-rule:evenodd;stroke:#000000;stroke-width:0;stroke-linecap:butt;stroke-linejoin:miter;stroke-miterlimit:10.43299961;stroke-dasharray:none;stroke-dashoffset:0;stroke-opacity:1"
         inkscape:connector-curvature="0"
         d="m 17.784968,24.133948 h 1.529984 c 0.07705,0 0.181617,0 0.181617,-0.11007 0,-0.110071 -0.104567,-0.110071 -0.181617,-0.110071 h -1.529984 v -1.529985 c 0,-0.07705 0,-0.181617 -0.110071,-0.181617 -0.110071,0 -0.110071,0.104568 -0.110071,0.181617 v 1.529985 h -1.540992 c -0.07155,0 -0.176113,0 -0.176113,0.110071 0,0.11007 0.104567,0.11007 0.176113,0.11007 h 1.540992 v 1.529985 c 0,0.07705 0,0.181617 0.110071,0.181617 0.110071,0 0.110071,-0.104567 0.110071,-0.181617 z"
         id="path1499" />
      <g
         transform="translate(2.6458334,-42.333335)"
         id="g1505">
        <path
           id="path1501"
           d="m 19.854014,65.872902 v -0.01101 l 0.0055,-0.01651 v -0.01101 l 0.0055,-0.01101 v -0.01101 l 0.0055,-0.01651 0.0055,-0.02752 0.0055,-0.02752 0.01101,-0.02752 0.0055,-0.02752 0.0055,-0.02752 0.0055,-0.01101 v -0.01101 l 0.0055,-0.01101 v -0.01651 l 0.0055,-0.01101 v -0.01101 l 0.0055,-0.01101 v -0.0055 l 0.0055,-0.01101 v -0.01101 -0.0055 -0.0055 l 0.0055,-0.0055 v -0.0055 -0.0055 -0.0055 c 0,-0.09906 -0.07705,-0.148596 -0.159603,-0.148596 -0.06604,0 -0.165106,0.04403 -0.203631,0.154099 -0.01651,0.03853 -0.275177,1.084198 -0.313702,1.22729 -0.03852,0.159603 -0.04953,0.258666 -0.04953,0.35773 0,0.06054 0,0.07155 0.0055,0.09906 -0.126582,0.291688 -0.291688,0.462297 -0.506326,0.462297 -0.43478,0 -0.43478,-0.407262 -0.43478,-0.500822 0,-0.176113 0.02752,-0.385248 0.280681,-1.05668 0.06054,-0.165106 0.09356,-0.242156 0.09356,-0.352226 0,-0.24766 -0.176113,-0.451291 -0.445787,-0.451291 -0.522836,0 -0.726467,0.798014 -0.726467,0.842042 0,0.05504 0.05504,0.05504 0.06604,0.05504 0.05504,0 0.06054,-0.01101 0.08806,-0.09356 0.148596,-0.511829 0.363234,-0.682439 0.555858,-0.682439 0.04953,0 0.137588,0.0055 0.137588,0.181617 0,0.137588 -0.06054,0.291688 -0.09906,0.385248 -0.242155,0.643914 -0.308198,0.891574 -0.308198,1.100708 0,0.500822 0.368737,0.687943 0.775999,0.687943 0.09356,0 0.352227,0 0.572369,-0.379745 0.143092,0.352227 0.522836,0.379745 0.687942,0.379745 0.412766,0 0.649418,-0.34122 0.79251,-0.671432 0.187121,-0.423773 0.363234,-1.155744 0.363234,-1.419914 0,-0.302695 -0.148595,-0.385248 -0.242156,-0.385248 -0.137588,0 -0.275177,0.143092 -0.275177,0.26417 0,0.07155 0.03302,0.104567 0.08255,0.148596 0.06054,0.06054 0.198128,0.203631 0.198128,0.462297 0,0.187121 -0.159603,0.726468 -0.302695,1.001645 -0.137588,0.291688 -0.330212,0.484311 -0.599886,0.484311 -0.258666,0 -0.407262,-0.165106 -0.407262,-0.478808 0,-0.154099 0.03852,-0.319205 0.06054,-0.396255 z"
           inkscape:connector-curvature="0"
           style="font-style:normal;font-variant:normal;font-weight:normal;font-stretch:normal;letter-spacing:normal;word-spacing:normal;text-anchor:start;fill:#000000;fill-opacity:1;fill-rule:evenodd;stroke:#000000;stroke-width:0;stroke-linecap:butt;stroke-linejoin:miter;stroke-miterlimit:10.43299961;stroke-dasharray:none;stroke-dashoffset:0;stroke-opacity:1" />
        <path
           id="path1503"
           d="m 23.183656,67.848673 h -0.126581 c -0.01101,0.08806 -0.05504,0.313702 -0.104567,0.352227 -0.02752,0.02201 -0.324709,0.02201 -0.379745,0.02201 H 21.86831 c 0.401758,-0.35773 0.539347,-0.462297 0.764992,-0.643914 0.286184,-0.225645 0.550354,-0.462298 0.550354,-0.825531 0,-0.462298 -0.407262,-0.748482 -0.897077,-0.748482 -0.478808,0 -0.803517,0.335716 -0.803517,0.687943 0,0.192624 0.165106,0.214638 0.203631,0.214638 0.09356,0 0.203631,-0.06604 0.203631,-0.203631 0,-0.07155 -0.02201,-0.203631 -0.225645,-0.203631 0.121078,-0.275177 0.379744,-0.357731 0.561361,-0.357731 0.385248,0 0.588879,0.297192 0.588879,0.610894 0,0.330212 -0.242156,0.594382 -0.363234,0.731971 l -0.930098,0.913587 c -0.03852,0.03302 -0.03852,0.03852 -0.03852,0.148596 h 1.58502 z"
           inkscape:connector-curvature="0"
           style="font-style:normal;font-variant:normal;font-weight:normal;font-stretch:normal;letter-spacing:normal;word-spacing:normal;text-anchor:start;fill:#000000;fill-opacity:1;fill-rule:evenodd;stroke:#000000;stroke-width:0;stroke-linecap:butt;stroke-linejoin:miter;stroke-miterlimit:10.43299961;stroke-dasharray:none;stroke-dashoffset:0;stroke-opacity:1" />
      </g>
      <path
         style="font-style:normal;font-variant:normal;font-weight:normal;font-stretch:normal;letter-spacing:normal;word-spacing:normal;text-anchor:start;fill:#000000;fill-opacity:1;fill-rule:evenodd;stroke:#000000;stroke-width:0;stroke-linecap:butt;stroke-linejoin:miter;stroke-miterlimit:10.43299961;stroke-dasharray:none;stroke-dashoffset:0;stroke-opacity:1"
         inkscape:connector-curvature="0"
         d="m 28.221051,24.133948 h 1.535488 c 0.07705,0 0.181617,0 0.181617,-0.11007 0,-0.110071 -0.104567,-0.110071 -0.181617,-0.110071 h -1.535488 v -1.529985 c 0,-0.07705 0,-0.181617 -0.110071,-0.181617 -0.104567,0 -0.104567,0.104568 -0.104567,0.181617 v 1.529985 h -1.540992 c -0.07705,0 -0.181617,0 -0.181617,0.110071 0,0.11007 0.104568,0.11007 0.181617,0.11007 h 1.540992 v 1.529985 c 0,0.07705 0,0.181617 0.104567,0.181617 0.110071,0 0.110071,-0.104567 0.110071,-0.181617 z"
         id="path1507" />
      <g
         transform="translate(0,-42.333335)"
         id="g1513">
        <path
           id="path1509"
           d="m 32.941436,65.872902 v -0.01101 l 0.0055,-0.01651 v -0.01101 l 0.0055,-0.01101 v -0.01101 l 0.0055,-0.01651 0.0055,-0.02752 0.0055,-0.02752 0.01101,-0.02752 0.0055,-0.02752 0.0055,-0.02752 0.0055,-0.01101 v -0.01101 l 0.0055,-0.01101 v -0.01651 l 0.0055,-0.01101 v -0.01101 l 0.0055,-0.01101 v -0.0055 -0.01101 l 0.0055,-0.01101 v -0.0055 -0.0055 -0.0055 -0.0055 l 0.0055,-0.0055 v -0.0055 c 0,-0.09906 -0.07705,-0.148596 -0.159603,-0.148596 -0.06604,0 -0.165106,0.04403 -0.203631,0.154099 -0.01651,0.03853 -0.275177,1.084198 -0.313702,1.22729 -0.03852,0.159603 -0.04953,0.258666 -0.04953,0.35773 0,0.06054 0,0.07155 0.0055,0.09906 -0.126582,0.291688 -0.291688,0.462297 -0.506326,0.462297 -0.440283,0 -0.440283,-0.407262 -0.440283,-0.500822 0,-0.176113 0.02752,-0.385248 0.286184,-1.05668 0.06054,-0.165106 0.09356,-0.242156 0.09356,-0.352226 0,-0.24766 -0.181617,-0.451291 -0.45129,-0.451291 -0.517333,0 -0.720964,0.798014 -0.720964,0.842042 0,0.05504 0.05504,0.05504 0.06604,0.05504 0.05504,0 0.06054,-0.01101 0.08806,-0.09356 0.148595,-0.511829 0.363234,-0.682439 0.555858,-0.682439 0.04403,0 0.132085,0.0055 0.132085,0.181617 0,0.137588 -0.06054,0.291688 -0.09906,0.385248 -0.236652,0.643914 -0.302695,0.891574 -0.302695,1.100708 0,0.500822 0.363234,0.687943 0.775999,0.687943 0.09356,0 0.352227,0 0.572369,-0.379745 0.143092,0.352227 0.522836,0.379745 0.687942,0.379745 0.407262,0 0.649418,-0.34122 0.79251,-0.671432 0.187121,-0.423773 0.363234,-1.155744 0.363234,-1.419914 0,-0.302695 -0.148595,-0.385248 -0.242156,-0.385248 -0.137588,0 -0.275177,0.143092 -0.275177,0.26417 0,0.07155 0.03302,0.104567 0.08255,0.148596 0.06054,0.06054 0.198128,0.203631 0.198128,0.462297 0,0.187121 -0.159603,0.726468 -0.302695,1.001645 -0.143092,0.291688 -0.335716,0.484311 -0.599886,0.484311 -0.258666,0 -0.407262,-0.165106 -0.407262,-0.478808 0,-0.154099 0.03852,-0.319205 0.06054,-0.396255 z"
           inkscape:connector-curvature="0"
           style="font-style:normal;font-variant:normal;font-weight:normal;font-stretch:normal;letter-spacing:normal;word-spacing:normal;text-anchor:start;fill:#000000;fill-opacity:1;fill-rule:evenodd;stroke:#000000;stroke-width:0;stroke-linecap:butt;stroke-linejoin:miter;stroke-miterlimit:10.43299961;stroke-dasharray:none;stroke-dashoffset:0;stroke-opacity:1" />
        <path
           id="path1511"
           d="m 35.379505,67.270801 h 0.02752 0.02752 l 0.02752,0.0055 h 0.02752 l 0.02201,0.0055 0.02752,0.01101 0.02201,0.0055 0.02752,0.01101 0.02201,0.01101 0.02202,0.01101 0.02201,0.01101 0.02201,0.01101 0.01651,0.01651 0.02201,0.01651 0.01651,0.01651 0.01651,0.02202 0.01651,0.01651 0.01651,0.02201 0.01651,0.02201 0.01101,0.02752 0.01651,0.02201 0.01101,0.02752 0.01101,0.02752 0.01101,0.02752 0.0055,0.02752 0.01101,0.03302 0.0055,0.02752 0.0055,0.03302 0.0055,0.03852 v 0.03302 l 0.0055,0.03852 v 0.03852 c 0,0.473305 -0.280681,0.616397 -0.500823,0.616397 -0.154099,0 -0.495319,-0.04403 -0.654921,-0.269674 0.181617,-0.01101 0.220141,-0.132085 0.220141,-0.214638 0,-0.121078 -0.08806,-0.209134 -0.209134,-0.209134 -0.110071,0 -0.214638,0.06054 -0.214638,0.220141 0,0.35773 0.401758,0.594383 0.864056,0.594383 0.533843,0 0.902581,-0.357731 0.902581,-0.737475 0,-0.302695 -0.242156,-0.599886 -0.665929,-0.687943 0.401759,-0.143092 0.550354,-0.429276 0.550354,-0.665928 0,-0.302695 -0.352226,-0.52834 -0.775999,-0.52834 -0.429276,0 -0.759489,0.209134 -0.759489,0.511829 0,0.132085 0.08806,0.203631 0.203631,0.203631 0.121078,0 0.192624,-0.08806 0.192624,-0.192624 0,-0.11007 -0.07155,-0.192624 -0.192624,-0.198127 0.132085,-0.17061 0.401759,-0.214638 0.544851,-0.214638 0.17061,0 0.412765,0.08806 0.412765,0.418269 0,0.159603 -0.05504,0.335716 -0.154099,0.456794 -0.126581,0.143092 -0.236652,0.154099 -0.429276,0.165106 -0.09356,0.0055 -0.104567,0.0055 -0.121078,0.01101 -0.0055,0 -0.03852,0.0055 -0.03852,0.04953 0,0.05504 0.03302,0.05504 0.09906,0.05504 z"
           inkscape:connector-curvature="0"
           style="font-style:normal;font-variant:normal;font-weight:normal;font-stretch:normal;letter-spacing:normal;word-spacing:normal;text-anchor:start;fill:#000000;fill-opacity:1;fill-rule:evenodd;stroke:#000000;stroke-width:0;stroke-linecap:butt;stroke-linejoin:miter;stroke-miterlimit:10.43299961;stroke-dasharray:none;stroke-dashoffset:0;stroke-opacity:1" />
      </g>
    </g>
    <g
       id="g1565"
       transform="translate(-36.83044,-24.408231)">
      <path
         style="font-style:normal;font-variant:normal;font-weight:normal;font-stretch:normal;letter-spacing:normal;word-spacing:normal;text-anchor:start;fill:#000000;fill-opacity:1;fill-rule:evenodd;stroke:#000000;stroke-width:0;stroke-linecap:butt;stroke-linejoin:miter;stroke-miterlimit:10.43299961;stroke-dasharray:none;stroke-dashoffset:0;stroke-opacity:1"
         inkscape:connector-curvature="0"
         d="m 32.941436,65.872902 v -0.01101 l 0.0055,-0.01651 v -0.01101 l 0.0055,-0.01101 v -0.01101 l 0.0055,-0.01651 0.0055,-0.02752 0.0055,-0.02752 0.01101,-0.02752 0.0055,-0.02752 0.0055,-0.02752 0.0055,-0.01101 v -0.01101 l 0.0055,-0.01101 v -0.01651 l 0.0055,-0.01101 v -0.01101 l 0.0055,-0.01101 v -0.0055 -0.01101 l 0.0055,-0.01101 v -0.0055 -0.0055 -0.0055 -0.0055 l 0.0055,-0.0055 v -0.0055 c 0,-0.09906 -0.07705,-0.148596 -0.159603,-0.148596 -0.06604,0 -0.165106,0.04403 -0.203631,0.154099 -0.01651,0.03853 -0.275177,1.084198 -0.313702,1.22729 -0.03852,0.159603 -0.04953,0.258666 -0.04953,0.35773 0,0.06054 0,0.07155 0.0055,0.09906 -0.126582,0.291688 -0.291688,0.462297 -0.506326,0.462297 -0.440283,0 -0.440283,-0.407262 -0.440283,-0.500822 0,-0.176113 0.02752,-0.385248 0.286184,-1.05668 0.06054,-0.165106 0.09356,-0.242156 0.09356,-0.352226 0,-0.24766 -0.181617,-0.451291 -0.45129,-0.451291 -0.517333,0 -0.720964,0.798014 -0.720964,0.842042 0,0.05504 0.05504,0.05504 0.06604,0.05504 0.05504,0 0.06054,-0.01101 0.08806,-0.09356 0.148595,-0.511829 0.363234,-0.682439 0.555858,-0.682439 0.04403,0 0.132085,0.0055 0.132085,0.181617 0,0.137588 -0.06054,0.291688 -0.09906,0.385248 -0.236652,0.643914 -0.302695,0.891574 -0.302695,1.100708 0,0.500822 0.363234,0.687943 0.775999,0.687943 0.09356,0 0.352227,0 0.572369,-0.379745 0.143092,0.352227 0.522836,0.379745 0.687942,0.379745 0.407262,0 0.649418,-0.34122 0.79251,-0.671432 0.187121,-0.423773 0.363234,-1.155744 0.363234,-1.419914 0,-0.302695 -0.148595,-0.385248 -0.242156,-0.385248 -0.137588,0 -0.275177,0.143092 -0.275177,0.26417 0,0.07155 0.03302,0.104567 0.08255,0.148596 0.06054,0.06054 0.198128,0.203631 0.198128,0.462297 0,0.187121 -0.159603,0.726468 -0.302695,1.001645 -0.143092,0.291688 -0.335716,0.484311 -0.599886,0.484311 -0.258666,0 -0.407262,-0.165106 -0.407262,-0.478808 0,-0.154099 0.03852,-0.319205 0.06054,-0.396255 z"
         id="path1561" />
      <path
         style="font-style:normal;font-variant:normal;font-weight:normal;font-stretch:normal;letter-spacing:normal;word-spacing:normal;text-anchor:start;fill:#000000;fill-opacity:1;fill-rule:evenodd;stroke:#000000;stroke-width:0;stroke-linecap:butt;stroke-linejoin:miter;stroke-miterlimit:10.43299961;stroke-dasharray:none;stroke-dashoffset:0;stroke-opacity:1"
         inkscape:connector-curvature="0"
         d="m 35.379505,67.270801 h 0.02752 0.02752 l 0.02752,0.0055 h 0.02752 l 0.02201,0.0055 0.02752,0.01101 0.02201,0.0055 0.02752,0.01101 0.02201,0.01101 0.02202,0.01101 0.02201,0.01101 0.02201,0.01101 0.01651,0.01651 0.02201,0.01651 0.01651,0.01651 0.01651,0.02202 0.01651,0.01651 0.01651,0.02201 0.01651,0.02201 0.01101,0.02752 0.01651,0.02201 0.01101,0.02752 0.01101,0.02752 0.01101,0.02752 0.0055,0.02752 0.01101,0.03302 0.0055,0.02752 0.0055,0.03302 0.0055,0.03852 v 0.03302 l 0.0055,0.03852 v 0.03852 c 0,0.473305 -0.280681,0.616397 -0.500823,0.616397 -0.154099,0 -0.495319,-0.04403 -0.654921,-0.269674 0.181617,-0.01101 0.220141,-0.132085 0.220141,-0.214638 0,-0.121078 -0.08806,-0.209134 -0.209134,-0.209134 -0.110071,0 -0.214638,0.06054 -0.214638,0.220141 0,0.35773 0.401758,0.594383 0.864056,0.594383 0.533843,0 0.902581,-0.357731 0.902581,-0.737475 0,-0.302695 -0.242156,-0.599886 -0.665929,-0.687943 0.401759,-0.143092 0.550354,-0.429276 0.550354,-0.665928 0,-0.302695 -0.352226,-0.52834 -0.775999,-0.52834 -0.429276,0 -0.759489,0.209134 -0.759489,0.511829 0,0.132085 0.08806,0.203631 0.203631,0.203631 0.121078,0 0.192624,-0.08806 0.192624,-0.192624 0,-0.11007 -0.07155,-0.192624 -0.192624,-0.198127 0.132085,-0.17061 0.401759,-0.214638 0.544851,-0.214638 0.17061,0 0.412765,0.08806 0.412765,0.418269 0,0.159603 -0.05504,0.335716 -0.154099,0.456794 -0.126581,0.143092 -0.236652,0.154099 -0.429276,0.165106 -0.09356,0.0055 -0.104567,0.0055 -0.121078,0.01101 -0.0055,0 -0.03852,0.0055 -0.03852,0.04953 0,0.05504 0.03302,0.05504 0.09906,0.05504 z"
         id="path1563" />
    </g>
    <path
       style="fill:#d40000;fill-rule:evenodd;stroke:#aa0000;stroke-width:0.26499999;stroke-linecap:butt;stroke-linejoin:miter;stroke-miterlimit:4;stroke-dasharray:none;stroke-opacity:0.67058824;marker-end:url(#marker1833)"
       d="m -23.60128,38.438206 4.68786,-6.99256"
       id="path1567"
       inkscape:connector-curvature="0"
       sodipodi:nodetypes="cc" />
    <path
       inkscape:connector-curvature="0"
       id="path2015"
       d="m -13.57008,38.438206 -3.88465,-6.94532"
       style="fill:#d40000;fill-rule:evenodd;stroke:#aa0000;stroke-width:0.26499999;stroke-linecap:butt;stroke-linejoin:miter;stroke-miterlimit:4;stroke-dasharray:none;stroke-opacity:0.67058824;marker-end:url(#marker2019)"
       sodipodi:nodetypes="cc" />
    <path
       sodipodi:nodetypes="cc"
       inkscape:connector-curvature="0"
       id="path2435"
       d="m -17.78044,30.500706 9.8859695,-14.4368"
       style="fill:#d40000;fill-rule:evenodd;stroke:#aa0000;stroke-width:0.26499999;stroke-linecap:butt;stroke-linejoin:miter;stroke-miterlimit:4;stroke-dasharray:none;stroke-opacity:0.67058824;marker-end:url(#marker2439)" />
    <path
       style="fill:#d40000;fill-rule:evenodd;stroke:#aa0000;stroke-width:0.26499999;stroke-linecap:butt;stroke-linejoin:miter;stroke-miterlimit:4;stroke-dasharray:none;stroke-opacity:0.67058824;marker-end:url(#marker2811)"
       d="m -2.9637705,38.438206 -3.81567,-22.04357"
       id="path2807"
       inkscape:connector-curvature="0"
       sodipodi:nodetypes="cc" />
    <g
       id="g1976"
       transform="matrix(1.38915,0,0,1.38915,-25.682465,28.86948)">
      <g
         word-spacing="normal"
         letter-spacing="normal"
         font-size-adjust="none"
         font-stretch="normal"
         font-weight="normal"
         font-variant="normal"
         font-style="normal"
         stroke-miterlimit="10.433"
         xml:space="preserve"
         transform="matrix(0.07519488,0,0,-0.07519488,-13.159104,40.945195)"
         id="content"
         style="font-style:normal;font-variant:normal;font-weight:normal;font-stretch:normal;letter-spacing:normal;word-spacing:normal;text-anchor:start;fill:none;fill-opacity:1;fill-rule:evenodd;stroke:#000000;stroke-linecap:butt;stroke-linejoin:miter;stroke-miterlimit:10.43299961;stroke-dasharray:none;stroke-dashoffset:0;stroke-opacity:1"><path
           id="path1971"
           d="m 478.54,423.09 0.02,0.1 0.02,0.11 0.03,0.12 0.03,0.11 0.03,0.12 0.03,0.12 0.06,0.25 0.06,0.25 0.06,0.25 0.06,0.24 0.06,0.25 0.03,0.11 0.03,0.12 0.03,0.11 0.02,0.11 0.03,0.1 0.02,0.1 0.02,0.1 0.02,0.09 0.02,0.08 0.02,0.08 0.01,0.07 0.01,0.06 0.01,0.06 0.01,0.05 v 0.04 l 0.01,0.03 c 0,0.91 -0.71,1.35 -1.46,1.35 -0.59,0 -1.48,-0.39 -1.83,-1.39 -0.15,-0.35 -2.5,-9.86 -2.84,-11.16 -0.36,-1.5 -0.45,-2.39 -0.45,-3.3 0,-0.54 0,-0.64 0.04,-0.89 -1.14,-2.64 -2.64,-4.18 -4.57,-4.18 -3.99,0 -3.99,3.68 -3.99,4.53 0,1.59 0.25,3.54 2.6,9.67 0.54,1.48 0.84,2.19 0.84,3.19 0,2.23 -1.64,4.07 -4.09,4.07 -4.74,0 -6.58,-7.21 -6.58,-7.67 0,-0.5 0.5,-0.5 0.61,-0.5 0.5,0 0.54,0.11 0.79,0.91 1.35,4.62 3.28,6.17 5.03,6.17 0.44,0 1.25,-0.05 1.25,-1.64 0,-1.25 -0.56,-2.64 -0.9,-3.48 -2.19,-5.88 -2.78,-8.18 -2.78,-10.07 0,-4.53 3.33,-6.28 7.06,-6.28 0.86,0 3.19,0 5.19,3.49 1.29,-3.19 4.73,-3.49 6.23,-3.49 3.74,0 5.92,3.14 7.22,6.13 1.69,3.89 3.28,10.56 3.28,12.95 0,2.75 -1.34,3.48 -2.19,3.48 -1.25,0 -2.48,-1.29 -2.48,-2.39 0,-0.64 0.3,-0.93 0.73,-1.34 0.55,-0.55 1.8,-1.84 1.8,-4.23 0,-1.69 -1.44,-6.58 -2.73,-9.11 -1.3,-2.64 -3.05,-4.39 -5.49,-4.39 -2.34,0 -3.69,1.5 -3.69,4.32 0,1.41 0.35,2.96 0.55,3.64 z"
           inkscape:connector-curvature="0"
           style="fill:#000000;stroke-width:0" /><path
           id="path1973"
           d="m 509.6,404.48 v 1.25 h -3.88 v 15.55 c 0,0.72 0,0.97 -0.76,0.97 -0.42,0 -0.57,0 -0.91,-0.49 l -11.53,-16.03 v -1.25 h 10.25 l 0.23,1.25 h -9.2 l 9.2,12.75 v -12.75 l -0.23,-1.25 v -2.86 c 0,-1.19 0,-1.61 -2.83,-1.61 H 499 v -1.25 c 1.74,0.06 3.97,0.14 5.22,0.14 1.3,0 3.52,-0.08 5.27,-0.14 v 1.25 h -0.94 c -2.83,0 -2.83,0.42 -2.83,1.61 v 2.86 z"
           inkscape:connector-curvature="0"
           style="fill:#000000;stroke-width:0" /></g>    </g>
    <g
       id="g2053"
       transform="matrix(1.38915,0,0,1.38915,-16.297078,28.83292)">
      <g
         word-spacing="normal"
         letter-spacing="normal"
         font-size-adjust="none"
         font-stretch="normal"
         font-weight="normal"
         font-variant="normal"
         font-style="normal"
         stroke-miterlimit="10.433"
         xml:space="preserve"
         transform="matrix(0.07519488,0,0,-0.07519488,-13.159104,40.945195)"
         id="g2051"
         style="font-style:normal;font-variant:normal;font-weight:normal;font-stretch:normal;letter-spacing:normal;word-spacing:normal;text-anchor:start;fill:none;fill-opacity:1;fill-rule:evenodd;stroke:#000000;stroke-linecap:butt;stroke-linejoin:miter;stroke-miterlimit:10.43299961;stroke-dasharray:none;stroke-dashoffset:0;stroke-opacity:1"><path
           id="path2047"
           d="m 478.54,423.09 0.02,0.1 0.02,0.11 0.03,0.12 0.03,0.11 0.03,0.12 0.03,0.12 0.06,0.25 0.06,0.25 0.06,0.25 0.06,0.24 0.06,0.25 0.03,0.11 0.03,0.12 0.03,0.11 0.02,0.11 0.03,0.1 0.02,0.1 0.02,0.1 0.02,0.09 0.02,0.08 0.02,0.08 0.01,0.07 0.01,0.06 0.01,0.06 0.01,0.05 v 0.04 l 0.01,0.03 c 0,0.91 -0.71,1.35 -1.46,1.35 -0.59,0 -1.48,-0.39 -1.83,-1.39 -0.15,-0.35 -2.5,-9.86 -2.84,-11.16 -0.36,-1.5 -0.45,-2.39 -0.45,-3.3 0,-0.54 0,-0.64 0.04,-0.89 -1.14,-2.64 -2.64,-4.18 -4.57,-4.18 -3.99,0 -3.99,3.68 -3.99,4.53 0,1.59 0.25,3.54 2.6,9.67 0.54,1.48 0.84,2.19 0.84,3.19 0,2.23 -1.64,4.07 -4.09,4.07 -4.74,0 -6.58,-7.21 -6.58,-7.67 0,-0.5 0.5,-0.5 0.61,-0.5 0.5,0 0.54,0.11 0.79,0.91 1.35,4.62 3.28,6.17 5.03,6.17 0.44,0 1.25,-0.05 1.25,-1.64 0,-1.25 -0.56,-2.64 -0.9,-3.48 -2.19,-5.88 -2.78,-8.18 -2.78,-10.07 0,-4.53 3.33,-6.28 7.06,-6.28 0.86,0 3.19,0 5.19,3.49 1.29,-3.19 4.73,-3.49 6.23,-3.49 3.74,0 5.92,3.14 7.22,6.13 1.69,3.89 3.28,10.56 3.28,12.95 0,2.75 -1.34,3.48 -2.19,3.48 -1.25,0 -2.48,-1.29 -2.48,-2.39 0,-0.64 0.3,-0.93 0.73,-1.34 0.55,-0.55 1.8,-1.84 1.8,-4.23 0,-1.69 -1.44,-6.58 -2.73,-9.11 -1.3,-2.64 -3.05,-4.39 -5.49,-4.39 -2.34,0 -3.69,1.5 -3.69,4.32 0,1.41 0.35,2.96 0.55,3.64 z"
           inkscape:connector-curvature="0"
           style="fill:#000000;stroke-width:0" /><path
           id="path2049"
           d="m 496.57,418.2 0.16,-0.04 0.16,-0.04 0.15,-0.04 0.16,-0.03 0.14,-0.03 0.15,-0.03 0.13,-0.03 0.14,-0.02 0.13,-0.03 0.13,-0.02 0.12,-0.02 0.12,-0.01 0.12,-0.02 0.11,-0.01 0.11,-0.02 0.11,-0.01 0.1,-0.01 0.1,-0.01 H 499 l 0.09,-0.01 0.09,-0.01 h 0.08 0.09 l 0.07,-0.01 h 0.08 0.07 0.07 0.07 0.06 0.06 0.06 0.05 c 4.6,0 7.31,3.14 7.31,3.67 0,0.37 -0.23,0.48 -0.4,0.48 -0.08,0 -0.14,0 -0.28,-0.11 -0.85,-0.31 -2.69,-1.01 -5.27,-1.01 -0.97,0 -2.83,0.08 -5.09,0.95 -0.35,0.17 -0.41,0.17 -0.46,0.17 -0.45,0 -0.45,-0.39 -0.45,-0.94 v -10.28 c 0,-0.59 0,-1.01 0.56,-1.01 0.32,0 0.35,0.06 0.71,0.48 1.5,1.92 3.62,2.21 4.84,2.21 2.08,0 3.03,-1.68 3.2,-1.96 0.63,-1.15 0.83,-2.47 0.83,-4.5 0,-1.04 0,-3.09 -1.05,-4.62 -0.85,-1.27 -2.35,-2.1 -4.06,-2.1 -2.26,0 -4.61,1.25 -5.48,3.55 1.33,-0.09 1.98,0.77 1.98,1.7 0,1.5 -1.28,1.78 -1.73,1.78 -0.06,0 -1.75,0 -1.75,-1.87 0,-3.14 2.86,-6.28 7.04,-6.28 4.46,0 8.36,3.31 8.36,7.7 0,3.94 -3,7.56 -7.31,7.56 -1.53,0 -3.34,-0.37 -4.87,-1.7 z"
           inkscape:connector-curvature="0"
           style="fill:#000000;stroke-width:0" /></g>    </g>
    <g
       id="g2164"
       transform="matrix(1.38915,0,0,1.38915,-17.012329,9.1040116)">
      <g
         word-spacing="normal"
         letter-spacing="normal"
         font-size-adjust="none"
         font-stretch="normal"
         font-weight="normal"
         font-variant="normal"
         font-style="normal"
         stroke-miterlimit="10.433"
         xml:space="preserve"
         transform="matrix(0.07519488,0,0,-0.07519488,-13.159104,40.945195)"
         id="g2162"
         style="font-style:normal;font-variant:normal;font-weight:normal;font-stretch:normal;letter-spacing:normal;word-spacing:normal;text-anchor:start;fill:none;fill-opacity:1;fill-rule:evenodd;stroke:#000000;stroke-linecap:butt;stroke-linejoin:miter;stroke-miterlimit:10.43299961;stroke-dasharray:none;stroke-dashoffset:0;stroke-opacity:1"><path
           id="path2152"
           d="m 478.54,423.09 0.02,0.1 0.02,0.11 0.03,0.12 0.03,0.11 0.03,0.12 0.03,0.12 0.06,0.25 0.06,0.25 0.06,0.25 0.06,0.24 0.06,0.25 0.03,0.11 0.03,0.12 0.03,0.11 0.02,0.11 0.03,0.1 0.02,0.1 0.02,0.1 0.02,0.09 0.02,0.08 0.02,0.08 0.01,0.07 0.01,0.06 0.01,0.06 0.01,0.05 v 0.04 l 0.01,0.03 c 0,0.91 -0.71,1.35 -1.46,1.35 -0.59,0 -1.48,-0.39 -1.83,-1.39 -0.15,-0.35 -2.5,-9.86 -2.84,-11.16 -0.36,-1.5 -0.45,-2.39 -0.45,-3.3 0,-0.54 0,-0.64 0.04,-0.89 -1.14,-2.64 -2.64,-4.18 -4.57,-4.18 -3.99,0 -3.99,3.68 -3.99,4.53 0,1.59 0.25,3.54 2.6,9.67 0.54,1.48 0.84,2.19 0.84,3.19 0,2.23 -1.64,4.07 -4.09,4.07 -4.74,0 -6.58,-7.21 -6.58,-7.67 0,-0.5 0.5,-0.5 0.61,-0.5 0.5,0 0.54,0.11 0.79,0.91 1.35,4.62 3.28,6.17 5.03,6.17 0.44,0 1.25,-0.05 1.25,-1.64 0,-1.25 -0.56,-2.64 -0.9,-3.48 -2.19,-5.88 -2.78,-8.18 -2.78,-10.07 0,-4.53 3.33,-6.28 7.06,-6.28 0.86,0 3.19,0 5.19,3.49 1.29,-3.19 4.73,-3.49 6.23,-3.49 3.74,0 5.92,3.14 7.22,6.13 1.69,3.89 3.28,10.56 3.28,12.95 0,2.75 -1.34,3.48 -2.19,3.48 -1.25,0 -2.48,-1.29 -2.48,-2.39 0,-0.64 0.3,-0.93 0.73,-1.34 0.55,-0.55 1.8,-1.84 1.8,-4.23 0,-1.69 -1.44,-6.58 -2.73,-9.11 -1.3,-2.64 -3.05,-4.39 -5.49,-4.39 -2.34,0 -3.69,1.5 -3.69,4.32 0,1.41 0.35,2.96 0.55,3.64 z"
           inkscape:connector-curvature="0"
           style="fill:#000000;stroke-width:0" /><path
           id="path2154"
           d="m 509.6,404.48 v 1.25 h -3.88 v 15.55 c 0,0.72 0,0.97 -0.76,0.97 -0.42,0 -0.57,0 -0.91,-0.49 l -11.53,-16.03 v -1.25 h 10.25 l 0.23,1.25 h -9.2 l 9.2,12.75 v -12.75 l -0.23,-1.25 v -2.86 c 0,-1.19 0,-1.61 -2.83,-1.61 H 499 v -1.25 c 1.74,0.06 3.97,0.14 5.22,0.14 1.3,0 3.52,-0.08 5.27,-0.14 v 1.25 h -0.94 c -2.83,0 -2.83,0.42 -2.83,1.61 v 2.86 z"
           inkscape:connector-curvature="0"
           style="fill:#000000;stroke-width:0" /><path
           id="path2156"
           d="m 545.02,417.65 h 13.9 c 0.69,0 1.64,0 1.64,1 0,1 -0.95,1 -1.64,1 h -13.9 v 13.96 c 0,0.68 0,1.64 -1,1.64 -0.99,0 -0.99,-0.96 -0.99,-1.64 v -13.96 h -13.95 c -0.7,0 -1.64,0 -1.64,-1 0,-1 0.94,-1 1.64,-1 h 13.95 v -13.94 c 0,-0.7 0,-1.65 0.99,-1.65 1,0 1,0.95 1,1.65 z"
           inkscape:connector-curvature="0"
           style="fill:#000000;stroke-width:0" /><path
           id="path2158"
           d="m 597.45,423.09 0.03,0.1 0.02,0.11 0.03,0.12 0.03,0.11 0.03,0.12 0.03,0.12 0.06,0.25 0.06,0.25 0.06,0.25 0.06,0.24 0.06,0.25 0.03,0.11 0.03,0.12 0.03,0.11 0.02,0.11 0.03,0.1 0.02,0.1 0.02,0.1 0.02,0.09 0.02,0.08 0.02,0.08 0.01,0.07 0.01,0.06 0.01,0.06 0.01,0.05 v 0.04 0.03 c 0,0.91 -0.7,1.35 -1.45,1.35 -0.59,0 -1.48,-0.39 -1.83,-1.39 -0.15,-0.35 -2.5,-9.86 -2.84,-11.16 -0.36,-1.5 -0.46,-2.39 -0.46,-3.3 0,-0.54 0,-0.64 0.05,-0.89 -1.14,-2.64 -2.64,-4.18 -4.58,-4.18 -3.98,0 -3.98,3.68 -3.98,4.53 0,1.59 0.25,3.54 2.59,9.67 0.55,1.48 0.85,2.19 0.85,3.19 0,2.23 -1.64,4.07 -4.1,4.07 -4.73,0 -6.57,-7.21 -6.57,-7.67 0,-0.5 0.5,-0.5 0.6,-0.5 0.5,0 0.55,0.11 0.8,0.91 1.34,4.62 3.28,6.17 5.03,6.17 0.44,0 1.25,-0.05 1.25,-1.64 0,-1.25 -0.56,-2.64 -0.9,-3.48 -2.19,-5.88 -2.78,-8.18 -2.78,-10.07 0,-4.53 3.32,-6.28 7.06,-6.28 0.86,0 3.18,0 5.18,3.49 1.3,-3.19 4.74,-3.49 6.24,-3.49 3.73,0 5.92,3.14 7.22,6.13 1.69,3.89 3.28,10.56 3.28,12.95 0,2.75 -1.34,3.48 -2.19,3.48 -1.25,0 -2.48,-1.29 -2.48,-2.39 0,-0.64 0.29,-0.93 0.73,-1.34 0.55,-0.55 1.8,-1.84 1.8,-4.23 0,-1.69 -1.44,-6.58 -2.74,-9.11 -1.29,-2.64 -3.04,-4.39 -5.48,-4.39 -2.34,0 -3.69,1.5 -3.69,4.32 0,1.41 0.35,2.96 0.55,3.64 z"
           inkscape:connector-curvature="0"
           style="fill:#000000;stroke-width:0" /><path
           id="path2160"
           d="m 615.48,418.2 0.17,-0.04 0.16,-0.04 0.15,-0.04 0.15,-0.03 0.15,-0.03 0.14,-0.03 0.14,-0.03 0.14,-0.02 0.13,-0.03 0.13,-0.02 0.12,-0.02 0.12,-0.01 0.12,-0.02 0.11,-0.01 0.11,-0.02 0.1,-0.01 0.1,-0.01 0.1,-0.01 h 0.1 l 0.09,-0.01 0.09,-0.01 h 0.08 0.08 l 0.08,-0.01 h 0.08 0.07 0.07 0.07 0.06 0.06 0.05 0.06 c 4.59,0 7.31,3.14 7.31,3.67 0,0.37 -0.23,0.48 -0.4,0.48 -0.08,0 -0.15,0 -0.29,-0.11 -0.84,-0.31 -2.68,-1.01 -5.26,-1.01 -0.97,0 -2.83,0.08 -5.1,0.95 -0.34,0.17 -0.4,0.17 -0.45,0.17 -0.45,0 -0.45,-0.39 -0.45,-0.94 v -10.28 c 0,-0.59 0,-1.01 0.56,-1.01 0.31,0 0.34,0.06 0.7,0.48 1.5,1.92 3.63,2.21 4.85,2.21 2.08,0 3.03,-1.68 3.2,-1.96 0.63,-1.15 0.83,-2.47 0.83,-4.5 0,-1.04 0,-3.09 -1.05,-4.62 -0.86,-1.27 -2.36,-2.1 -4.06,-2.1 -2.27,0 -4.61,1.25 -5.48,3.55 1.32,-0.09 1.98,0.77 1.98,1.7 0,1.5 -1.28,1.78 -1.73,1.78 -0.07,0 -1.75,0 -1.75,-1.87 0,-3.14 2.85,-6.28 7.04,-6.28 4.46,0 8.36,3.31 8.36,7.7 0,3.94 -3,7.56 -7.31,7.56 -1.53,0 -3.34,-0.37 -4.88,-1.7 z"
           inkscape:connector-curvature="0"
           style="fill:#000000;stroke-width:0" /></g>    </g>
    <g
       id="g2279"
       transform="matrix(1.38915,0,0,1.38915,-56.157409,-16.195058)">
      <g
         word-spacing="normal"
         letter-spacing="normal"
         font-size-adjust="none"
         font-stretch="normal"
         font-weight="normal"
         font-variant="normal"
         font-style="normal"
         stroke-miterlimit="10.433"
         xml:space="preserve"
         transform="matrix(0.07519488,0,0,-0.07519488,-13.159104,40.945195)"
         id="g2277"
         style="font-style:normal;font-variant:normal;font-weight:normal;font-stretch:normal;letter-spacing:normal;word-spacing:normal;text-anchor:start;fill:none;fill-opacity:1;fill-rule:evenodd;stroke:#000000;stroke-linecap:butt;stroke-linejoin:miter;stroke-miterlimit:10.43299961;stroke-dasharray:none;stroke-dashoffset:0;stroke-opacity:1"><path
           id="path2249"
           d="m 478.54,423.09 0.02,0.1 0.02,0.11 0.03,0.12 0.03,0.11 0.03,0.12 0.03,0.12 0.06,0.25 0.06,0.25 0.06,0.25 0.06,0.24 0.06,0.25 0.03,0.11 0.03,0.12 0.03,0.11 0.02,0.11 0.03,0.1 0.02,0.1 0.02,0.1 0.02,0.09 0.02,0.08 0.02,0.08 0.01,0.07 0.01,0.06 0.01,0.06 0.01,0.05 v 0.04 l 0.01,0.03 c 0,0.91 -0.71,1.35 -1.46,1.35 -0.59,0 -1.48,-0.39 -1.83,-1.39 -0.15,-0.35 -2.5,-9.86 -2.84,-11.16 -0.36,-1.5 -0.45,-2.39 -0.45,-3.3 0,-0.54 0,-0.64 0.04,-0.89 -1.14,-2.64 -2.64,-4.18 -4.57,-4.18 -3.99,0 -3.99,3.68 -3.99,4.53 0,1.59 0.25,3.54 2.6,9.67 0.54,1.48 0.84,2.19 0.84,3.19 0,2.23 -1.64,4.07 -4.09,4.07 -4.74,0 -6.58,-7.21 -6.58,-7.67 0,-0.5 0.5,-0.5 0.61,-0.5 0.5,0 0.54,0.11 0.79,0.91 1.35,4.62 3.28,6.17 5.03,6.17 0.44,0 1.25,-0.05 1.25,-1.64 0,-1.25 -0.56,-2.64 -0.9,-3.48 -2.19,-5.88 -2.78,-8.18 -2.78,-10.07 0,-4.53 3.33,-6.28 7.06,-6.28 0.86,0 3.19,0 5.19,3.49 1.29,-3.19 4.73,-3.49 6.23,-3.49 3.74,0 5.92,3.14 7.22,6.13 1.69,3.89 3.28,10.56 3.28,12.95 0,2.75 -1.34,3.48 -2.19,3.48 -1.25,0 -2.48,-1.29 -2.48,-2.39 0,-0.64 0.3,-0.93 0.73,-1.34 0.55,-0.55 1.8,-1.84 1.8,-4.23 0,-1.69 -1.44,-6.58 -2.73,-9.11 -1.3,-2.64 -3.05,-4.39 -5.49,-4.39 -2.34,0 -3.69,1.5 -3.69,4.32 0,1.41 0.35,2.96 0.55,3.64 z"
           inkscape:connector-curvature="0"
           style="fill:#000000;stroke-width:0" /><path
           id="path2251"
           d="m 502.83,420.92 v 0.04 0.04 0.05 0.04 0.03 0.04 0.04 0.03 0.04 l -0.01,0.03 v 0.03 0.03 0.03 l -0.01,0.03 v 0.03 0.02 l -0.01,0.03 v 0.02 l -0.01,0.03 v 0.02 l -0.01,0.04 -0.02,0.04 -0.02,0.03 -0.02,0.03 -0.02,0.03 -0.02,0.03 -0.03,0.02 -0.03,0.02 -0.03,0.02 -0.04,0.01 -0.04,0.01 -0.05,0.02 h -0.02 -0.02 l -0.03,0.01 h -0.03 l -0.02,0.01 h -0.03 -0.03 -0.03 -0.03 l -0.04,0.01 h -0.03 -0.04 -0.03 -0.04 -0.04 -0.04 -0.04 -0.05 -0.04 -0.04 c -2.24,-2.2 -5.4,-2.23 -6.83,-2.23 v -1.25 c 0.84,0 3.14,0 5.04,0.97 v -17.77 c 0,-1.16 0,-1.61 -3.48,-1.61 h -1.31 v -1.25 c 0.62,0.03 4.9,0.14 6.2,0.14 1.08,0 5.47,-0.11 6.23,-0.14 v 1.25 h -1.32 c -3.49,0 -3.49,0.45 -3.49,1.61 z"
           inkscape:connector-curvature="0"
           style="fill:#000000;stroke-width:0" /><path
           id="path2253"
           d="m 545.02,417.65 h 13.9 c 0.69,0 1.64,0 1.64,1 0,1 -0.95,1 -1.64,1 h -13.9 v 13.96 c 0,0.68 0,1.64 -1,1.64 -0.99,0 -0.99,-0.96 -0.99,-1.64 v -13.96 h -13.95 c -0.7,0 -1.64,0 -1.64,-1 0,-1 0.94,-1 1.64,-1 h 13.95 v -13.94 c 0,-0.7 0,-1.65 0.99,-1.65 1,0 1,0.95 1,1.65 z"
           inkscape:connector-curvature="0"
           style="fill:#000000;stroke-width:0" /><path
           id="path2255"
           d="m 597.45,423.09 0.03,0.1 0.02,0.11 0.03,0.12 0.03,0.11 0.03,0.12 0.03,0.12 0.06,0.25 0.06,0.25 0.06,0.25 0.06,0.24 0.06,0.25 0.03,0.11 0.03,0.12 0.03,0.11 0.02,0.11 0.03,0.1 0.02,0.1 0.02,0.1 0.02,0.09 0.02,0.08 0.02,0.08 0.01,0.07 0.01,0.06 0.01,0.06 0.01,0.05 v 0.04 0.03 c 0,0.91 -0.7,1.35 -1.45,1.35 -0.59,0 -1.48,-0.39 -1.83,-1.39 -0.15,-0.35 -2.5,-9.86 -2.84,-11.16 -0.36,-1.5 -0.46,-2.39 -0.46,-3.3 0,-0.54 0,-0.64 0.05,-0.89 -1.14,-2.64 -2.64,-4.18 -4.58,-4.18 -3.98,0 -3.98,3.68 -3.98,4.53 0,1.59 0.25,3.54 2.59,9.67 0.55,1.48 0.85,2.19 0.85,3.19 0,2.23 -1.64,4.07 -4.1,4.07 -4.73,0 -6.57,-7.21 -6.57,-7.67 0,-0.5 0.5,-0.5 0.6,-0.5 0.5,0 0.55,0.11 0.8,0.91 1.34,4.62 3.28,6.17 5.03,6.17 0.44,0 1.25,-0.05 1.25,-1.64 0,-1.25 -0.56,-2.64 -0.9,-3.48 -2.19,-5.88 -2.78,-8.18 -2.78,-10.07 0,-4.53 3.32,-6.28 7.06,-6.28 0.86,0 3.18,0 5.18,3.49 1.3,-3.19 4.74,-3.49 6.24,-3.49 3.73,0 5.92,3.14 7.22,6.13 1.69,3.89 3.28,10.56 3.28,12.95 0,2.75 -1.34,3.48 -2.19,3.48 -1.25,0 -2.48,-1.29 -2.48,-2.39 0,-0.64 0.29,-0.93 0.73,-1.34 0.55,-0.55 1.8,-1.84 1.8,-4.23 0,-1.69 -1.44,-6.58 -2.74,-9.11 -1.29,-2.64 -3.04,-4.39 -5.48,-4.39 -2.34,0 -3.69,1.5 -3.69,4.32 0,1.41 0.35,2.96 0.55,3.64 z"
           inkscape:connector-curvature="0"
           style="fill:#000000;stroke-width:0" /><path
           id="path2257"
           d="m 627.67,405.11 h -1.19 c -0.09,-0.77 -0.45,-2.83 -0.9,-3.18 -0.27,-0.2 -2.96,-0.2 -3.44,-0.2 h -6.42 c 3.66,3.23 4.87,4.2 6.97,5.84 2.58,2.07 4.98,4.22 4.98,7.54 0,4.21 -3.69,6.79 -8.15,6.79 -4.32,0 -7.25,-3.03 -7.25,-6.23 0,-1.78 1.5,-1.96 1.85,-1.96 0.83,0 1.85,0.6 1.85,1.85 0,0.62 -0.25,1.84 -2.06,1.84 1.07,2.47 3.45,3.24 5.09,3.24 3.48,0 5.3,-2.71 5.3,-5.53 0,-3.04 -2.16,-5.44 -3.28,-6.69 l -8.4,-8.3 c -0.35,-0.31 -0.35,-0.39 -0.35,-1.36 h 14.35 z"
           inkscape:connector-curvature="0"
           style="fill:#000000;stroke-width:0" /><path
           id="path2259"
           d="m 663.93,417.65 h 13.91 c 0.69,0 1.64,0 1.64,1 0,1 -0.95,1 -1.64,1 h -13.91 v 13.96 c 0,0.68 0,1.64 -1,1.64 -0.98,0 -0.98,-0.96 -0.98,-1.64 V 419.65 H 648 c -0.71,0 -1.65,0 -1.65,-1 0,-1 0.94,-1 1.65,-1 h 13.95 v -13.94 c 0,-0.7 0,-1.65 0.98,-1.65 1,0 1,0.95 1,1.65 z"
           inkscape:connector-curvature="0"
           style="fill:#000000;stroke-width:0" /><path
           id="path2261"
           d="m 716.38,423.09 0.02,0.1 0.02,0.11 0.03,0.12 0.03,0.11 0.03,0.12 0.03,0.12 0.06,0.25 0.06,0.25 0.06,0.25 0.06,0.24 0.06,0.25 0.03,0.11 0.03,0.12 0.03,0.11 0.02,0.11 0.03,0.1 0.02,0.1 0.02,0.1 0.02,0.09 0.02,0.08 0.02,0.08 0.01,0.07 0.01,0.06 0.01,0.06 0.01,0.05 v 0.04 0.03 c 0,0.91 -0.7,1.35 -1.45,1.35 -0.59,0 -1.48,-0.39 -1.83,-1.39 -0.15,-0.35 -2.5,-9.86 -2.84,-11.16 -0.36,-1.5 -0.45,-2.39 -0.45,-3.3 0,-0.54 0,-0.64 0.04,-0.89 -1.14,-2.64 -2.64,-4.18 -4.57,-4.18 -3.99,0 -3.99,3.68 -3.99,4.53 0,1.59 0.25,3.54 2.59,9.67 0.55,1.48 0.85,2.19 0.85,3.19 0,2.23 -1.64,4.07 -4.09,4.07 -4.74,0 -6.58,-7.21 -6.58,-7.67 0,-0.5 0.5,-0.5 0.61,-0.5 0.5,0 0.54,0.11 0.79,0.91 1.35,4.62 3.28,6.17 5.03,6.17 0.44,0 1.25,-0.05 1.25,-1.64 0,-1.25 -0.56,-2.64 -0.9,-3.48 -2.19,-5.88 -2.78,-8.18 -2.78,-10.07 0,-4.53 3.32,-6.28 7.06,-6.28 0.86,0 3.19,0 5.19,3.49 1.29,-3.19 4.73,-3.49 6.23,-3.49 3.74,0 5.92,3.14 7.22,6.13 1.69,3.89 3.28,10.56 3.28,12.95 0,2.75 -1.34,3.48 -2.19,3.48 -1.25,0 -2.48,-1.29 -2.48,-2.39 0,-0.64 0.3,-0.93 0.73,-1.34 0.55,-0.55 1.8,-1.84 1.8,-4.23 0,-1.69 -1.44,-6.58 -2.73,-9.11 -1.3,-2.64 -3.05,-4.39 -5.49,-4.39 -2.34,0 -3.69,1.5 -3.69,4.32 0,1.41 0.35,2.96 0.55,3.64 z"
           inkscape:connector-curvature="0"
           style="fill:#000000;stroke-width:0" /><path
           id="path2263"
           d="m 738.52,410.4 h 0.25 l 0.25,-0.02 0.24,-0.03 0.24,-0.04 0.23,-0.05 0.23,-0.06 0.22,-0.07 0.21,-0.08 0.21,-0.1 0.2,-0.1 0.2,-0.12 0.19,-0.12 0.18,-0.14 0.18,-0.15 0.16,-0.16 0.16,-0.17 0.15,-0.18 0.15,-0.19 0.13,-0.2 0.13,-0.22 0.11,-0.22 0.11,-0.24 0.1,-0.24 0.09,-0.26 0.08,-0.27 0.07,-0.28 0.06,-0.29 0.05,-0.3 0.04,-0.31 0.03,-0.32 0.01,-0.33 0.01,-0.35 c 0,-4.33 -2.52,-5.61 -4.53,-5.61 -1.39,0 -4.47,0.38 -5.93,2.44 1.63,0.06 2.02,1.22 2.02,1.95 0,1.11 -0.84,1.91 -1.92,1.91 -0.97,0 -1.95,-0.59 -1.95,-2.02 0,-3.28 3.62,-5.4 7.84,-5.4 4.84,0 8.19,3.25 8.19,6.73 0,2.72 -2.22,5.44 -6.07,6.24 3.66,1.33 4.99,3.93 4.99,6.06 0,2.75 -3.17,4.81 -7.03,4.81 -3.88,0 -6.83,-1.89 -6.83,-4.67 0,-1.19 0.76,-1.84 1.81,-1.84 1.08,0 1.77,0.79 1.77,1.76 0,1.02 -0.69,1.75 -1.77,1.81 1.22,1.55 3.61,1.93 4.91,1.93 1.56,0 3.76,-0.77 3.76,-3.8 0,-1.47 -0.48,-3.06 -1.39,-4.14 -1.15,-1.33 -2.12,-1.41 -3.87,-1.5 -0.88,-0.08 -0.94,-0.08 -1.11,-0.11 -0.08,0 -0.36,-0.06 -0.36,-0.45 0,-0.49 0.31,-0.49 0.9,-0.49 z"
           inkscape:connector-curvature="0"
           style="fill:#000000;stroke-width:0" /><path
           id="path2265"
           d="m 782.85,417.65 h 13.91 c 0.69,0 1.64,0 1.64,1 0,1 -0.95,1 -1.64,1 h -13.91 v 13.96 c 0,0.68 0,1.64 -1,1.64 -0.98,0 -0.98,-0.96 -0.98,-1.64 v -13.96 h -13.95 c -0.7,0 -1.64,0 -1.64,-1 0,-1 0.94,-1 1.64,-1 h 13.95 v -13.94 c 0,-0.7 0,-1.65 0.98,-1.65 1,0 1,0.95 1,1.65 z"
           inkscape:connector-curvature="0"
           style="fill:#000000;stroke-width:0" /><path
           id="path2267"
           d="m 835.29,423.09 0.03,0.1 0.02,0.11 0.03,0.12 0.03,0.11 0.03,0.12 0.03,0.12 0.06,0.25 0.06,0.25 0.06,0.25 0.06,0.24 0.06,0.25 0.03,0.11 0.03,0.12 0.03,0.11 0.02,0.11 0.03,0.1 0.02,0.1 0.02,0.1 0.02,0.09 0.02,0.08 0.02,0.08 0.01,0.07 0.01,0.06 0.01,0.06 0.01,0.05 v 0.04 0.03 c 0,0.91 -0.7,1.35 -1.45,1.35 -0.59,0 -1.49,-0.39 -1.83,-1.39 -0.16,-0.35 -2.5,-9.86 -2.84,-11.16 -0.36,-1.5 -0.45,-2.39 -0.45,-3.3 0,-0.54 0,-0.64 0.04,-0.89 -1.14,-2.64 -2.64,-4.18 -4.58,-4.18 -3.98,0 -3.98,3.68 -3.98,4.53 0,1.59 0.25,3.54 2.59,9.67 0.55,1.48 0.85,2.19 0.85,3.19 0,2.23 -1.64,4.07 -4.1,4.07 -4.73,0 -6.57,-7.21 -6.57,-7.67 0,-0.5 0.5,-0.5 0.6,-0.5 0.5,0 0.55,0.11 0.8,0.91 1.35,4.62 3.28,6.17 5.03,6.17 0.44,0 1.25,-0.05 1.25,-1.64 0,-1.25 -0.56,-2.64 -0.9,-3.48 -2.19,-5.88 -2.78,-8.18 -2.78,-10.07 0,-4.53 3.32,-6.28 7.06,-6.28 0.86,0 3.19,0 5.19,3.49 1.29,-3.19 4.73,-3.49 6.23,-3.49 3.73,0 5.92,3.14 7.22,6.13 1.68,3.89 3.28,10.56 3.28,12.95 0,2.75 -1.35,3.48 -2.19,3.48 -1.25,0 -2.48,-1.29 -2.48,-2.39 0,-0.64 0.29,-0.93 0.73,-1.34 0.55,-0.55 1.8,-1.84 1.8,-4.23 0,-1.69 -1.44,-6.58 -2.74,-9.11 -1.29,-2.64 -3.04,-4.39 -5.48,-4.39 -2.34,0 -3.69,1.5 -3.69,4.32 0,1.41 0.35,2.96 0.55,3.64 z"
           inkscape:connector-curvature="0"
           style="fill:#000000;stroke-width:0" /><path
           id="path2269"
           d="m 866.36,404.48 v 1.25 h -3.88 v 15.55 c 0,0.72 0,0.97 -0.76,0.97 -0.42,0 -0.56,0 -0.91,-0.49 l -11.53,-16.03 v -1.25 h 10.25 l 0.24,1.25 h -9.21 l 9.21,12.75 v -12.75 l -0.24,-1.25 v -2.86 c 0,-1.19 0,-1.61 -2.83,-1.61 h -0.93 v -1.25 c 1.73,0.06 3.96,0.14 5.21,0.14 1.3,0 3.52,-0.08 5.27,-0.14 v 1.25 h -0.94 c -2.83,0 -2.83,0.42 -2.83,1.61 v 2.86 z"
           inkscape:connector-curvature="0"
           style="fill:#000000;stroke-width:0" /><path
           id="path2271"
           d="m 901.66,417.65 h 13.9 c 0.69,0 1.64,0 1.64,1 0,1 -0.95,1 -1.64,1 h -13.9 v 13.96 c 0,0.68 0,1.64 -1,1.64 -0.99,0 -0.99,-0.96 -0.99,-1.64 v -13.96 h -13.95 c -0.7,0 -1.64,0 -1.64,-1 0,-1 0.94,-1 1.64,-1 h 13.95 v -13.94 c 0,-0.7 0,-1.65 0.99,-1.65 1,0 1,0.95 1,1.65 z"
           inkscape:connector-curvature="0"
           style="fill:#000000;stroke-width:0" /><path
           id="path2273"
           d="m 954.09,423.09 0.03,0.1 0.02,0.11 0.03,0.12 0.03,0.11 0.03,0.12 0.03,0.12 0.06,0.25 0.06,0.25 0.06,0.25 0.06,0.24 0.06,0.25 0.03,0.11 0.03,0.12 0.03,0.11 0.02,0.11 0.03,0.1 0.02,0.1 0.02,0.1 0.02,0.09 0.02,0.08 0.02,0.08 0.01,0.07 0.01,0.06 0.01,0.06 0.01,0.05 v 0.04 0.03 c 0,0.91 -0.7,1.35 -1.45,1.35 -0.59,0 -1.48,-0.39 -1.83,-1.39 -0.15,-0.35 -2.5,-9.86 -2.84,-11.16 -0.36,-1.5 -0.45,-2.39 -0.45,-3.3 0,-0.54 0,-0.64 0.04,-0.89 -1.14,-2.64 -2.64,-4.18 -4.58,-4.18 -3.98,0 -3.98,3.68 -3.98,4.53 0,1.59 0.25,3.54 2.59,9.67 0.55,1.48 0.85,2.19 0.85,3.19 0,2.23 -1.64,4.07 -4.1,4.07 -4.73,0 -6.57,-7.21 -6.57,-7.67 0,-0.5 0.5,-0.5 0.6,-0.5 0.5,0 0.55,0.11 0.8,0.91 1.35,4.62 3.28,6.17 5.03,6.17 0.44,0 1.25,-0.05 1.25,-1.64 0,-1.25 -0.56,-2.64 -0.9,-3.48 -2.19,-5.88 -2.78,-8.18 -2.78,-10.07 0,-4.53 3.32,-6.28 7.06,-6.28 0.86,0 3.19,0 5.19,3.49 1.29,-3.19 4.73,-3.49 6.23,-3.49 3.73,0 5.92,3.14 7.22,6.13 1.69,3.89 3.28,10.56 3.28,12.95 0,2.75 -1.34,3.48 -2.19,3.48 -1.25,0 -2.48,-1.29 -2.48,-2.39 0,-0.64 0.29,-0.93 0.73,-1.34 0.55,-0.55 1.8,-1.84 1.8,-4.23 0,-1.69 -1.44,-6.58 -2.74,-9.11 -1.29,-2.64 -3.04,-4.39 -5.48,-4.39 -2.34,0 -3.69,1.5 -3.69,4.32 0,1.41 0.35,2.96 0.55,3.64 z"
           inkscape:connector-curvature="0"
           style="fill:#000000;stroke-width:0" /><path
           id="path2275"
           d="m 972.12,418.2 0.17,-0.04 0.16,-0.04 0.15,-0.04 0.15,-0.03 0.15,-0.03 0.14,-0.03 0.14,-0.03 0.14,-0.02 0.13,-0.03 0.13,-0.02 0.12,-0.02 0.12,-0.01 0.12,-0.02 0.11,-0.01 0.11,-0.02 0.1,-0.01 0.11,-0.01 0.09,-0.01 h 0.1 l 0.09,-0.01 0.09,-0.01 h 0.08 0.09 l 0.07,-0.01 h 0.08 0.07 0.07 0.07 0.06 0.06 0.06 0.05 c 4.59,0 7.31,3.14 7.31,3.67 0,0.37 -0.23,0.48 -0.4,0.48 -0.08,0 -0.14,0 -0.29,-0.11 -0.84,-0.31 -2.68,-1.01 -5.26,-1.01 -0.97,0 -2.83,0.08 -5.09,0.95 -0.35,0.17 -0.41,0.17 -0.46,0.17 -0.45,0 -0.45,-0.39 -0.45,-0.94 v -10.28 c 0,-0.59 0,-1.01 0.56,-1.01 0.31,0 0.35,0.06 0.7,0.48 1.5,1.92 3.63,2.21 4.85,2.21 2.08,0 3.03,-1.68 3.2,-1.96 0.63,-1.15 0.83,-2.47 0.83,-4.5 0,-1.04 0,-3.09 -1.05,-4.62 -0.86,-1.27 -2.36,-2.1 -4.06,-2.1 -2.27,0 -4.61,1.25 -5.48,3.55 1.32,-0.09 1.98,0.77 1.98,1.7 0,1.5 -1.28,1.78 -1.73,1.78 -0.07,0 -1.75,0 -1.75,-1.87 0,-3.14 2.86,-6.28 7.04,-6.28 4.46,0 8.36,3.31 8.36,7.7 0,3.94 -3,7.56 -7.31,7.56 -1.53,0 -3.34,-0.37 -4.88,-1.7 z"
           inkscape:connector-curvature="0"
           style="fill:#000000;stroke-width:0" /></g>    </g>
  </g>
</svg>
